<svg width="360" height="360" viewBox="0 0 360 360" fill="none" xmlns="http://www.w3.org/2000/svg">
<path d="M179.999 75.1011C122.158 75.1011 75.0996 122.159 75.0996 180C75.0996 237.841 122.157 284.898 179.999 284.898C237.841 284.898 284.898 237.841 284.898 180C284.898 122.159 237.84 75.1011 179.999 75.1011ZM179.999 281.6C123.977 281.6 78.3986 236.023 78.3986 180.001C78.3986 123.978 123.977 78.4011 179.999 78.4011C236.021 78.4011 281.599 123.979 281.599 180.001C281.599 236.023 236.021 281.6 179.999 281.6Z" fill="#E2E8F0"/>
<path d="M179.998 86.2788C128.32 86.2788 86.2773 128.322 86.2773 180C86.2773 231.677 128.32 273.72 179.998 273.72C231.676 273.72 273.719 231.677 273.719 180C273.719 128.322 231.676 86.2788 179.998 86.2788ZM179.998 270.694C129.989 270.694 89.3043 230.009 89.3043 180C89.3043 129.991 129.99 89.3048 179.998 89.3048C230.007 89.3048 270.692 129.991 270.692 180C270.692 230.009 230.007 270.694 179.998 270.694Z" fill="#E2E8F0"/>
<path d="M178.9 34.6098C178.912 34.6188 178.925 34.6268 178.938 34.6348L179.516 35.0038C179.663 35.0978 179.832 35.1448 179.999 35.1448C180.168 35.1448 180.336 35.0978 180.483 35.0038L181.098 34.6098C185.924 31.1858 188.573 27.4378 188.759 23.7728C189.058 17.7498 180.839 12.3158 180.489 12.0868C180.191 11.8928 179.805 11.8918 179.505 12.0868C179.155 12.3148 170.934 17.7408 171.235 23.7738C171.424 27.4368 174.073 31.1848 178.9 34.6098ZM179.999 13.9368C181.694 15.1558 187.174 19.4388 186.962 23.6838C186.806 26.7768 184.418 30.0478 180.094 33.1168L179.999 33.1768L179.924 33.1288C175.573 30.0378 173.192 26.7718 173.036 23.6838C172.824 19.4328 178.303 15.1548 179.999 13.9368Z" fill="#E2E8F0"/>
<path d="M169.611 43.3542L170.133 43.3702C170.142 43.3702 170.151 43.3702 170.16 43.3702C170.5 43.3702 170.813 43.1782 170.965 42.8722L171.216 42.3662C173.06 38.1842 173.325 34.6382 171.983 32.1122C169.769 27.9462 162.164 27.6062 161.841 27.5942C161.479 27.5832 161.154 27.7782 160.997 28.0992C160.856 28.3892 157.558 35.2532 160.173 39.1712C161.764 41.5492 165.012 42.9942 169.611 43.3542ZM162.369 29.4322C164.607 29.6252 169.086 30.4972 170.395 32.9582C171.463 34.9692 171.186 37.9522 169.611 41.5502C165.676 41.2262 162.932 40.0582 161.671 38.1722C160.131 35.8632 161.482 31.4982 162.369 29.4322Z" fill="#E2E8F0"/>
<path d="M188.782 42.3671C188.788 42.3801 188.793 42.3931 188.8 42.4061L189.033 42.8731C189.185 43.1791 189.498 43.3711 189.838 43.3711C189.847 43.3711 189.856 43.3711 189.865 43.3711L190.43 43.3531C194.986 42.9951 198.235 41.5491 199.825 39.1721C202.439 35.2541 199.141 28.3901 199 28.1001C198.844 27.7801 198.535 27.5851 198.156 27.5951C197.834 27.6071 190.228 27.9481 188.014 32.1131C186.672 34.6381 186.938 38.1841 188.782 42.3671ZM189.603 32.9581C190.909 30.5031 195.391 29.6281 197.63 29.4321C198.518 31.4981 199.869 35.8631 198.328 38.1711C197.062 40.0641 194.303 41.2331 190.39 41.5501C188.811 37.9321 188.538 34.9611 189.603 32.9581Z" fill="#E2E8F0"/>
<path d="M106.803 54.3738C106.817 54.3758 106.832 54.3768 106.846 54.3768L107.532 54.4098C107.547 54.4098 107.562 54.4108 107.576 54.4108C107.91 54.4108 108.218 54.2258 108.373 53.9278L108.71 53.2808C111.196 47.9118 111.634 43.3438 109.975 40.0688C107.242 34.6938 97.4084 34.0618 96.9914 34.0368C96.6384 34.0188 96.3014 34.2078 96.1394 34.5248C95.9484 34.8968 91.5104 43.6908 94.7704 48.7768C96.7504 51.8658 100.912 53.8008 106.803 54.3738ZM97.4834 35.8878C99.5614 36.1038 106.444 37.0978 108.37 40.8848C109.771 43.6478 109.324 47.6728 107.097 52.4848L107.045 52.5838L106.956 52.5788C101.645 52.0588 97.9544 50.4078 96.2844 47.8048C93.9874 44.2228 96.6174 37.7878 97.4834 35.8878Z" fill="#E2E8F0"/>
<path d="M96.2472 68.3829C98.2392 68.3829 100.545 67.7799 103.086 66.5779L103.546 66.3319C103.855 66.1669 104.041 65.8369 104.021 65.4869L103.988 64.9239C103.51 60.3779 101.979 57.1689 99.5602 55.6439C95.5682 53.1299 88.8002 56.6119 88.5132 56.7619C88.1972 56.9269 88.0082 57.2629 88.0312 57.6189C88.0522 57.9409 88.6012 65.5359 92.8172 67.6379C93.8192 68.1349 94.9682 68.3829 96.2472 68.3829ZM89.8832 58.0939C91.9202 57.1499 96.2372 55.6799 98.6002 57.1659C100.526 58.3809 101.768 61.1079 102.189 65.0119C98.6142 66.6859 95.6512 67.0349 93.6202 66.0259C91.1352 64.7879 90.1392 60.3279 89.8832 58.0939Z" fill="#E2E8F0"/>
<path d="M119.232 56.196C119.244 56.205 119.256 56.213 119.268 56.222L119.703 56.511C119.854 56.611 120.027 56.661 120.201 56.661C120.364 56.661 120.527 56.617 120.672 56.528L121.153 56.231C124.929 53.657 127.029 50.788 127.228 47.934C127.55 43.235 121.277 38.917 121.01 38.736C120.716 38.535 120.331 38.528 120.027 38.717C119.754 38.888 113.323 42.963 113.471 47.678C113.562 50.537 115.554 53.482 119.232 56.196ZM120.484 40.574C122.281 41.926 125.622 45.042 125.432 47.811C125.275 50.083 123.461 52.468 120.222 54.688C117.054 52.332 115.342 49.889 115.27 47.622C115.183 44.843 118.638 41.857 120.484 40.574Z" fill="#E2E8F0"/>
<path d="M359.059 178.55L356.385 177.358C353.423 176.037 348.967 171.39 344.65 166.888C339.137 161.141 332.89 154.627 326.136 150.501C321.308 147.298 316.534 145.422 311.9 144.851C315.658 142.082 318.877 138.155 321.425 133.075C325.286 126.042 327.471 117.283 329.4 109.552C330.907 103.51 332.466 97.262 334.381 94.645L336.109 92.283C336.478 91.778 336.516 91.102 336.205 90.559C335.894 90.015 335.287 89.707 334.67 89.769L331.758 90.063C328.525 90.387 322.354 88.57 316.381 86.811C308.739 84.562 300.077 82.012 292.162 81.787C286.201 81.396 280.995 82.206 276.605 84.138C278.607 79.778 279.494 74.627 279.158 68.776C278.995 60.754 276.519 52.071 274.334 44.409C272.626 38.421 270.86 32.229 271.214 29.007L271.533 26.098C271.601 25.476 271.297 24.871 270.756 24.556C270.216 24.24 269.54 24.272 269.031 24.637L266.654 26.344C264.02 28.236 257.76 29.742 251.7 31.199C243.956 33.062 235.178 35.173 228.208 38.926C222.38 41.789 218.03 45.435 215.184 49.742C214.932 44.578 213.071 39.258 209.55 33.953C205.365 27.108 198.851 20.86 193.099 15.344C188.605 11.034 183.958 6.578 182.638 3.614L181.446 0.940002C181.19 0.368002 180.623 0 179.997 0C179.37 0 178.804 0.368002 178.548 0.940002L177.357 3.613C176.036 6.574 171.39 11.029 166.894 15.342C161.144 20.856 154.628 27.106 150.499 33.863C147.301 38.683 145.426 43.448 144.852 48.075C142.084 44.325 138.146 41.118 133.075 38.574C126.044 34.714 117.287 32.528 109.553 30.598C103.511 29.091 97.262 27.532 94.646 25.617L92.284 23.889C91.779 23.52 91.103 23.482 90.56 23.793C90.016 24.104 89.707 24.706 89.769 25.328L90.063 28.241C90.389 31.466 88.571 37.643 86.811 43.62C84.562 51.261 82.012 59.923 81.787 67.836C81.394 73.798 82.204 79.005 84.137 83.395C79.776 81.391 74.625 80.504 68.777 80.84C60.751 81.003 52.071 83.479 44.411 85.664C38.422 87.372 32.23 89.139 29.007 88.784L26.098 88.465C25.482 88.402 24.872 88.701 24.555 89.242C24.24 89.782 24.272 90.458 24.637 90.966L26.344 93.343C28.236 95.978 29.742 102.238 31.198 108.294C33.06 116.039 35.172 124.817 38.925 131.788C41.79 137.621 45.442 141.965 49.753 144.811C44.586 145.061 39.262 146.922 33.952 150.445C27.105 154.631 20.856 161.147 15.343 166.896C11.033 171.39 6.576 176.037 3.613 177.357L0.940002 178.548C0.369002 178.803 0 179.37 0 179.997C0 180.623 0.368002 181.191 0.940002 181.445L3.613 182.637C6.573 183.957 11.027 188.602 15.346 193.104C20.859 198.853 27.109 205.368 33.863 209.495C38.693 212.699 43.464 214.554 48.101 215.124C44.34 217.893 41.124 221.837 38.575 226.92C34.715 233.95 32.53 242.705 30.599 250.443C29.092 256.485 27.533 262.733 25.618 265.35L23.89 267.713C23.521 268.219 23.483 268.894 23.794 269.437C24.105 269.981 24.713 270.29 25.329 270.228L28.242 269.934C31.463 269.602 37.641 271.426 43.619 273.186C51.261 275.435 59.923 277.985 67.837 278.211C68.821 278.275 69.785 278.308 70.728 278.308C75.494 278.308 79.726 277.481 83.39 275.87C81.391 280.228 80.506 285.375 80.842 291.222C81.005 299.247 83.481 307.928 85.666 315.587C87.373 321.574 89.14 327.766 88.785 330.992L88.467 333.901C88.399 334.524 88.703 335.128 89.244 335.443C89.492 335.587 89.768 335.659 90.044 335.659C90.369 335.659 90.694 335.559 90.969 335.361L93.346 333.653C95.98 331.761 102.24 330.256 108.294 328.8C116.04 326.937 124.819 324.825 131.791 321.072C137.619 318.209 141.968 314.563 144.815 310.255C145.067 315.419 146.929 320.739 150.449 326.045C154.635 332.893 161.151 339.141 166.899 344.654C171.394 348.964 176.041 353.421 177.361 356.383L178.552 359.056C178.807 359.628 179.374 359.997 180.001 359.997C180.627 359.997 181.194 359.629 181.449 359.057L182.641 356.384C183.963 353.42 188.61 348.965 193.104 344.655C198.853 339.141 205.37 332.891 209.499 326.134C212.696 321.314 214.572 316.549 215.146 311.922C217.914 315.672 221.852 318.878 226.923 321.422C233.957 325.283 242.715 327.468 250.446 329.397C256.488 330.904 262.736 332.463 265.353 334.378L267.716 336.106C267.993 336.309 268.323 336.412 268.652 336.412C268.923 336.412 269.195 336.342 269.44 336.202C269.983 335.891 270.293 335.29 270.23 334.666L269.936 331.754C269.611 328.529 271.429 322.353 273.188 316.377C275.437 308.735 277.987 300.073 278.213 292.159C278.605 286.199 277.797 280.994 275.865 276.605C279.618 278.327 283.956 279.224 288.825 279.224C289.61 279.224 290.412 279.201 291.224 279.154C299.245 278.991 307.927 276.515 315.589 274.33C321.577 272.622 327.771 270.856 330.994 271.21L333.903 271.529C334.522 271.597 335.13 271.294 335.446 270.752C335.761 270.212 335.729 269.536 335.364 269.027L333.657 266.65C331.766 264.016 330.261 257.757 328.803 251.699C326.941 243.954 324.829 235.175 321.076 228.205C318.208 222.367 314.555 218.013 310.238 215.167C315.408 214.919 320.735 213.072 326.048 209.546C332.889 205.365 339.134 198.854 344.658 193.095C348.968 188.6 353.425 183.953 356.386 182.634L359.06 181.442C359.632 181.187 360 180.62 360 179.993C359.999 179.373 359.631 178.805 359.059 178.55ZM292.011 84.954C299.574 85.171 308.027 87.659 315.485 89.854C321.714 91.688 327.612 93.43 331.486 93.261C329.384 96.515 327.895 102.484 326.322 108.789C324.44 116.33 322.308 124.877 318.617 131.602C315.272 138.269 310.769 142.73 305.337 144.934C303.603 145.196 301.897 145.656 300.222 146.306C296.741 146.797 292.964 146.507 288.938 145.429C288.338 143.541 287.688 141.675 286.993 139.831C286.994 139.832 286.994 139.833 286.995 139.835C287.76 139.837 288.513 139.597 289.248 139.079C290.621 138.026 291.021 136.592 290.406 134.93C289.815 133.335 288.268 131.607 286.424 130.002C290.918 132.123 295.902 133.859 298.967 132.66C300.237 132.164 301.112 131.214 301.579 129.802C302.096 127.806 301.412 126.136 299.593 124.977C296.548 123.033 290.604 122.693 285.507 122.903C292.3 121.073 300.65 118.196 302.509 114.032C303.086 112.741 303.012 111.412 302.278 110.061C301.316 108.454 299.991 107.56 298.339 107.404C293.934 106.988 288.082 111.973 283.459 116.689C285.95 112.66 288.19 108.011 288.083 104.739C288.01 102.587 286.929 101.145 284.912 100.563C283.498 100.254 282.237 100.522 281.163 101.36C278.565 103.385 277.513 108.567 277.041 113.521C276.601 111.11 275.905 108.89 274.835 107.567C273.721 106.195 272.286 105.809 270.663 106.462C269.802 106.849 269.177 107.412 268.794 108.138C267.54 106.592 266.249 105.078 264.918 103.6C266.252 98.614 268.402 94.59 271.345 91.574C271.401 91.521 271.454 91.465 271.509 91.411C276.327 86.576 283.208 84.376 292.011 84.954ZM179.999 290.953C118.819 290.953 69.046 241.181 69.046 180.001C69.046 118.821 118.819 69.047 179.999 69.047C241.179 69.047 290.952 118.821 290.952 180.001C290.952 241.181 241.179 290.953 179.999 290.953ZM229.658 41.745C236.318 38.16 244.884 36.1 252.445 34.28C258.758 32.762 264.74 31.324 268.013 29.25C267.814 33.118 269.501 39.034 271.283 45.281C273.415 52.756 275.831 61.229 275.987 68.899C276.469 77.305 274.273 84.013 269.639 88.789C269.415 89.005 269.192 89.223 268.975 89.449C265.943 92.314 261.962 94.418 257.093 95.707C255.644 94.381 254.163 93.088 252.647 91.837C252.647 91.837 252.648 91.837 252.648 91.838C253.332 91.459 253.877 90.865 254.264 90.032C254.929 88.435 254.56 86.992 253.198 85.858C251.89 84.771 249.687 84.045 247.288 83.573C252.241 83.169 257.427 82.187 259.485 79.619C260.338 78.555 260.623 77.296 260.323 75.838C259.775 73.85 258.349 72.744 256.194 72.647C252.586 72.482 247.264 75.152 242.951 77.877C247.926 72.902 253.727 66.242 253.261 61.706C253.117 60.299 252.389 59.185 251.079 58.38C249.443 57.467 247.849 57.354 246.34 58.042C242.315 59.878 239.73 67.119 238.077 73.512C238.226 68.777 237.848 63.631 236.122 60.849C234.985 59.02 233.329 58.31 231.291 58.811C229.911 59.249 228.952 60.11 228.439 61.372C227.198 64.423 228.871 69.44 230.934 73.968C229.35 72.097 227.639 70.521 226.051 69.908C224.401 69.275 222.965 69.657 221.883 71.032C221.342 71.78 221.087 72.561 221.104 73.362C219.244 72.643 217.361 71.972 215.456 71.349H215.457C211.977 58.218 216.784 48.069 229.658 41.745ZM153.174 35.567C157.12 29.111 163.479 23.012 169.093 17.628C173.779 13.135 178.217 8.878 179.997 5.438C181.776 8.88 186.217 13.138 190.906 17.635C196.515 23.015 202.872 29.113 206.874 35.656C214.635 47.355 213.601 58.735 204.126 68.282C202.203 67.867 200.264 67.501 198.308 67.184H198.309C198.689 66.522 198.854 65.751 198.77 64.858C198.539 63.144 197.492 62.084 195.745 61.791C194.068 61.511 191.799 61.996 189.489 62.798C193.562 59.952 197.546 56.489 198.028 53.234C198.228 51.886 197.839 50.654 196.846 49.547C195.37 48.106 193.582 47.871 191.672 48.873C188.473 50.55 185.223 55.539 182.873 60.067C184.661 53.262 186.312 44.586 183.623 40.904C182.789 39.762 181.599 39.166 180.062 39.132C178.189 39.169 176.755 39.874 175.799 41.23C173.249 44.845 174.667 52.401 176.463 58.756C174.204 54.592 171.283 50.339 168.39 48.806C166.486 47.799 164.697 48.022 163.19 49.482C162.219 50.556 161.826 51.783 162.018 53.131C162.484 56.392 166.459 59.88 170.524 62.751C168.213 61.934 165.941 61.436 164.261 61.707C162.516 61.992 161.469 63.046 161.228 64.779C161.138 65.695 161.311 66.497 161.727 67.179C159.746 67.499 157.782 67.87 155.835 68.291C155.836 68.291 155.836 68.291 155.836 68.291C152.835 65.303 150.673 62.16 149.363 58.886C149.091 57.161 148.653 55.496 148.044 53.902C147.255 48.09 148.948 41.938 153.174 35.567ZM193.787 66.546C193.797 66.547 193.808 66.548 193.819 66.55C193.809 66.548 193.798 66.547 193.787 66.546ZM84.953 67.987C85.17 60.425 87.657 51.973 89.853 44.512C91.686 38.283 93.424 32.381 93.259 28.512C96.512 30.615 102.482 32.104 108.791 33.678C116.33 35.559 124.876 37.692 131.599 41.382C138.265 44.727 142.727 49.23 144.931 54.661C145.194 56.395 145.653 58.102 146.303 59.778C146.794 63.259 146.504 67.036 145.426 71.061C143.539 71.661 141.675 72.31 139.832 73.004C139.834 72.239 139.594 71.486 139.076 70.751C138.024 69.378 136.589 68.978 134.927 69.592C133.332 70.183 131.604 71.731 129.998 73.574C132.119 69.08 133.855 64.095 132.656 61.031C132.16 59.761 131.21 58.886 129.798 58.418C127.801 57.901 126.132 58.585 124.973 60.404C123.029 63.449 122.689 69.393 122.899 74.49C121.069 67.697 118.192 59.347 114.028 57.488C112.737 56.912 111.408 56.986 110.057 57.719C108.45 58.681 107.556 60.006 107.4 61.658C106.984 66.062 111.969 71.915 116.685 76.538C112.656 74.047 108.007 71.807 104.735 71.914C102.583 71.986 101.141 73.068 100.559 75.085C100.25 76.499 100.518 77.76 101.356 78.834C103.381 81.432 108.564 82.484 113.517 82.956C111.106 83.395 108.886 84.092 107.563 85.162C106.191 86.276 105.805 87.712 106.458 89.335C106.845 90.196 107.408 90.821 108.134 91.204C106.588 92.458 105.073 93.749 103.595 95.08C98.601 93.745 94.573 91.591 91.555 88.643C91.516 88.602 91.475 88.563 91.435 88.522C86.583 83.705 84.373 76.812 84.953 67.987ZM41.743 130.341C38.159 123.68 36.098 115.113 34.279 107.553C32.761 101.239 31.323 95.258 29.249 91.986C33.109 92.177 39.034 90.498 45.28 88.716C52.753 86.584 61.225 84.168 68.897 84.011C77.347 83.524 84.089 85.753 88.874 90.451C89.05 90.632 89.227 90.813 89.41 90.99C92.292 94.026 94.409 98.019 95.704 102.906C94.378 104.354 93.086 105.834 91.835 107.35C91.456 106.666 90.861 106.121 90.029 105.734C88.432 105.069 86.989 105.438 85.855 106.8C84.768 108.107 84.042 110.311 83.57 112.71C83.166 107.757 82.184 102.571 79.616 100.513C78.552 99.66 77.293 99.376 75.836 99.675C73.848 100.223 72.742 101.649 72.645 103.804C72.48 107.412 75.15 112.734 77.875 117.047C72.9 112.072 66.24 106.271 61.704 106.737C60.297 106.881 59.183 107.609 58.378 108.919C57.465 110.555 57.352 112.149 58.04 113.659C59.876 117.684 67.117 120.269 73.51 121.922C68.775 121.773 63.629 122.151 60.847 123.877C59.018 125.014 58.308 126.67 58.809 128.708C59.247 130.088 60.108 131.047 61.37 131.56C64.421 132.801 69.438 131.128 73.966 129.065C72.095 130.649 70.519 132.36 69.906 133.948C69.273 135.598 69.655 137.034 71.03 138.116C71.778 138.657 72.559 138.912 73.36 138.896C72.641 140.755 71.971 142.637 71.348 144.542C58.218 148.021 48.068 143.214 41.743 130.341ZM35.566 206.824C29.112 202.88 23.014 196.523 17.624 190.902C13.131 186.218 8.875 181.781 5.436 180.001C8.877 178.222 13.135 173.782 17.632 169.095C23.012 163.485 29.11 157.127 35.655 153.124C47.356 145.362 58.736 146.398 68.282 155.872C67.867 157.794 67.501 159.733 67.184 161.69C66.522 161.31 65.751 161.145 64.858 161.229C63.144 161.46 62.084 162.507 61.791 164.254C61.511 165.931 61.996 168.2 62.798 170.51C59.952 166.437 56.489 162.453 53.234 161.971C51.886 161.771 50.654 162.16 49.547 163.153C48.106 164.629 47.87 166.417 48.873 168.327C50.55 171.526 55.539 174.776 60.067 177.126C53.262 175.339 44.586 173.686 40.904 176.376C39.762 177.21 39.166 178.4 39.132 179.937C39.168 181.81 39.874 183.244 41.23 184.2C44.845 186.75 52.401 185.332 58.756 183.536C54.592 185.795 50.339 188.716 48.806 191.609C47.8 193.513 48.022 195.302 49.482 196.809C50.556 197.779 51.783 198.174 53.131 197.981C56.392 197.515 59.88 193.54 62.751 189.475C61.934 191.786 61.436 194.058 61.707 195.738C61.992 197.483 63.046 198.53 64.779 198.771C65.695 198.861 66.497 198.688 67.179 198.272C67.499 200.254 67.87 202.218 68.291 204.165C68.291 204.164 68.291 204.164 68.291 204.163C65.304 207.163 62.163 209.325 58.89 210.634C57.162 210.907 55.496 211.345 53.899 211.955C48.088 212.743 41.936 211.05 35.566 206.824ZM66.092 189.322C66.089 189.281 66.085 189.241 66.081 189.2C66.084 189.241 66.089 189.281 66.092 189.322ZM65.796 175.788C65.806 175.528 65.814 175.267 65.826 175.007C65.814 175.267 65.805 175.528 65.796 175.788ZM66.083 170.785C66.087 170.741 66.091 170.697 66.095 170.653C66.091 170.697 66.086 170.741 66.083 170.785ZM67.986 275.046C60.423 274.829 51.971 272.341 44.509 270.145C38.557 268.393 32.905 266.728 29.039 266.728C28.86 266.728 28.684 266.732 28.512 266.74C30.614 263.486 32.104 257.516 33.679 251.202C35.561 243.664 37.693 235.12 41.382 228.399C44.728 221.728 49.235 217.266 54.672 215.063C56.395 214.801 58.09 214.343 59.755 213.699C63.243 213.203 67.026 213.492 71.06 214.572C71.66 216.459 72.309 218.324 73.003 220.167C73.003 220.167 73.003 220.167 73.003 220.166C72.238 220.164 71.485 220.404 70.75 220.922C69.377 221.975 68.977 223.409 69.592 225.071C70.183 226.666 71.73 228.394 73.574 230C69.08 227.879 64.095 226.143 61.031 227.342C59.761 227.838 58.886 228.788 58.418 230.2C57.901 232.196 58.585 233.866 60.404 235.025C63.449 236.969 69.393 237.309 74.491 237.099C67.697 238.929 59.347 241.806 57.488 245.97C56.912 247.261 56.986 248.59 57.719 249.941C58.681 251.548 60.006 252.442 61.658 252.598C66.062 253.014 71.915 248.029 76.538 243.313C74.047 247.342 71.807 251.991 71.914 255.263C71.986 257.415 73.068 258.857 75.085 259.439C76.499 259.748 77.76 259.48 78.834 258.643C81.432 256.618 82.484 251.436 82.956 246.482C83.395 248.893 84.092 251.113 85.162 252.436C86.276 253.808 87.712 254.194 89.334 253.541C90.195 253.154 90.82 252.592 91.203 251.866C92.457 253.412 93.748 254.926 95.079 256.404C93.747 261.384 91.601 265.403 88.665 268.418C88.595 268.486 88.527 268.555 88.458 268.624C83.642 273.434 76.772 275.623 67.986 275.046ZM130.339 318.255C123.677 321.84 115.11 323.901 107.552 325.719C101.239 327.237 95.258 328.676 91.984 330.75C92.184 326.879 90.496 320.964 88.714 314.718C86.582 307.244 84.165 298.773 84.01 291.101C83.53 282.732 85.705 276.045 90.296 271.273C90.541 271.039 90.782 270.799 91.019 270.553C94.051 267.687 98.033 265.582 102.903 264.293L102.902 264.292C104.351 265.619 105.832 266.912 107.349 268.164C106.665 268.543 106.12 269.137 105.733 269.97C105.069 271.567 105.437 273.01 106.799 274.144C108.106 275.231 110.31 275.957 112.709 276.429C107.756 276.833 102.57 277.815 100.512 280.383C99.659 281.447 99.375 282.706 99.674 284.163C100.222 286.151 101.648 287.257 103.803 287.354C107.411 287.519 112.733 284.849 117.046 282.124C112.071 287.099 106.27 293.759 106.736 298.295C106.88 299.701 107.608 300.816 108.918 301.621C110.554 302.534 112.148 302.647 113.657 301.959C117.682 300.123 120.267 292.882 121.92 286.489C121.771 291.224 122.15 296.37 123.875 299.152C125.012 300.981 126.669 301.691 128.706 301.19C130.086 300.752 131.045 299.891 131.558 298.629C132.799 295.578 131.126 290.561 129.063 286.033C130.647 287.904 132.358 289.48 133.945 290.093C135.595 290.727 137.031 290.344 138.113 288.969C138.654 288.221 138.909 287.44 138.893 286.639H138.892C140.752 287.358 142.635 288.029 144.54 288.652C144.54 288.652 144.54 288.652 144.539 288.652C148.021 301.781 143.214 311.93 130.339 318.255ZM206.824 324.433C202.878 330.889 196.519 336.988 190.908 342.369C186.221 346.863 181.781 351.12 180 354.562C178.221 351.12 173.781 346.862 169.094 342.367C163.484 336.987 157.126 330.89 153.123 324.344C145.361 312.645 146.395 301.265 155.87 291.717C157.792 292.132 159.732 292.498 161.688 292.815C161.308 293.477 161.142 294.248 161.226 295.141C161.457 296.855 162.504 297.915 164.251 298.208C165.928 298.488 168.197 298.003 170.507 297.201C166.434 300.047 162.45 303.51 161.968 306.766C161.768 308.114 162.157 309.345 163.15 310.453C164.626 311.893 166.414 312.129 168.324 311.127C171.523 309.45 174.773 304.461 177.123 299.933C175.335 306.738 173.683 315.414 176.373 319.096C177.207 320.238 178.397 320.834 179.934 320.868C181.807 320.832 183.241 320.126 184.197 318.77C186.747 315.155 185.329 307.599 183.533 301.244C185.792 305.408 188.713 309.661 191.606 311.194C193.51 312.201 195.299 311.978 196.806 310.518C197.776 309.444 198.171 308.217 197.978 306.868C197.512 303.607 193.537 300.119 189.472 297.248C191.783 298.065 194.055 298.563 195.736 298.292C197.48 298.007 198.528 296.953 198.769 295.22C198.859 294.304 198.686 293.502 198.27 292.82C200.251 292.5 202.214 292.129 204.16 291.708C207.16 294.695 209.322 297.838 210.632 301.111C210.904 302.837 211.342 304.503 211.952 306.098C212.742 311.91 211.049 318.063 206.824 324.433ZM275.045 292.013C274.828 299.576 272.34 308.029 270.144 315.49C268.31 321.718 266.573 327.618 266.738 331.488C263.483 329.385 257.514 327.896 251.21 326.323C243.669 324.441 235.122 322.309 228.396 318.618C221.73 315.274 217.269 310.772 215.065 305.341C214.802 303.606 214.343 301.898 213.692 300.221C213.201 296.741 213.492 292.965 214.57 288.94C216.457 288.34 218.321 287.691 220.164 286.997C220.162 287.762 220.402 288.515 220.92 289.25C221.973 290.623 223.407 291.023 225.069 290.409C226.664 289.818 228.392 288.27 229.997 286.427C227.876 290.921 226.14 295.905 227.339 298.97C227.835 300.239 228.785 301.115 230.197 301.582C232.194 302.099 233.863 301.415 235.022 299.596C236.965 296.551 237.306 290.607 237.096 285.509C238.926 292.303 241.803 300.652 245.967 302.512C247.258 303.089 248.587 303.015 249.938 302.281C251.545 301.319 252.439 299.994 252.595 298.342C253.011 293.938 248.026 288.085 243.31 283.462C247.339 285.953 251.988 288.193 255.26 288.086C257.412 288.014 258.854 286.932 259.436 284.915C259.745 283.501 259.477 282.24 258.639 281.166C256.614 278.568 251.431 277.516 246.478 277.044C248.889 276.604 251.109 275.908 252.432 274.838C253.804 273.724 254.19 272.288 253.537 270.665C253.15 269.804 252.588 269.179 251.862 268.796C253.409 267.542 254.923 266.251 256.402 264.919L256.401 264.92C261.409 266.259 265.447 268.421 268.467 271.383C268.576 271.496 268.683 271.612 268.795 271.723C273.484 276.528 275.616 283.335 275.045 292.013ZM318.254 229.66C321.839 236.32 323.899 244.887 325.718 252.449C327.237 258.762 328.675 264.743 330.748 268.014C326.89 267.813 320.963 269.502 314.716 271.284C307.241 273.416 298.769 275.832 291.099 275.988C282.751 276.475 276.074 274.311 271.304 269.738C271.048 269.469 270.787 269.204 270.518 268.946C267.67 265.917 265.575 261.946 264.291 257.095C265.619 255.645 266.912 254.163 268.165 252.645C268.164 252.647 268.162 252.648 268.161 252.65C268.54 253.334 269.134 253.879 269.966 254.265C271.563 254.93 273.006 254.561 274.14 253.199C275.227 251.892 275.953 249.688 276.425 247.289C276.829 252.242 277.811 257.428 280.379 259.486C281.443 260.339 282.702 260.624 284.16 260.324C286.148 259.776 287.254 258.35 287.351 256.195C287.516 252.587 284.846 247.265 282.121 242.952C287.096 247.927 293.756 253.728 298.292 253.262C299.698 253.118 300.813 252.39 301.618 251.08C302.531 249.444 302.644 247.85 301.956 246.341C300.119 242.316 292.879 239.731 286.486 238.078C291.221 238.227 296.367 237.849 299.149 236.123C300.978 234.986 301.688 233.33 301.187 231.292C300.749 229.912 299.888 228.953 298.626 228.44C295.575 227.199 290.559 228.872 286.03 230.935C287.901 229.351 289.477 227.64 290.09 226.052C290.723 224.402 290.341 222.966 288.966 221.884C288.218 221.343 287.438 221.088 286.637 221.105C287.357 219.244 288.028 217.359 288.651 215.453C288.65 215.455 288.65 215.457 288.649 215.458C301.78 211.978 311.929 216.786 318.254 229.66ZM342.353 190.919C336.977 196.524 330.882 202.877 324.343 206.876C312.645 214.639 301.265 213.605 291.717 204.129C291.717 204.13 291.716 204.131 291.716 204.133C292.131 202.21 292.498 200.269 292.815 198.311C293.477 198.691 294.248 198.856 295.141 198.772C296.855 198.541 297.916 197.494 298.208 195.747C298.488 194.07 298.003 191.801 297.201 189.491C300.047 193.564 303.51 197.548 306.766 198.03C308.114 198.23 309.346 197.841 310.453 196.848C311.893 195.372 312.129 193.584 311.127 191.674C309.45 188.475 304.461 185.225 299.933 182.875C306.738 184.662 315.414 186.315 319.096 183.625C320.238 182.791 320.834 181.601 320.868 180.064C320.831 178.191 320.125 176.757 318.77 175.801C315.155 173.251 307.599 174.669 301.244 176.465C305.408 174.206 309.661 171.285 311.194 168.392C312.2 166.488 311.978 164.699 310.518 163.192C309.444 162.221 308.217 161.827 306.868 162.02C303.608 162.486 300.119 166.461 297.248 170.526C298.065 168.215 298.563 165.943 298.292 164.262C298.007 162.518 296.953 161.47 295.22 161.229C294.304 161.139 293.502 161.312 292.82 161.728C292.5 159.747 292.129 157.784 291.708 155.838C294.702 152.831 297.852 150.667 301.133 149.358C302.854 149.085 304.518 148.654 306.109 148.045C311.915 147.259 318.064 148.952 324.431 153.175C330.884 157.119 336.98 163.475 342.367 169.09C346.861 173.777 351.119 178.217 354.56 179.997C351.12 181.777 346.861 186.218 342.353 190.919Z" fill="#E2E8F0"/>
<path d="M312.481 113.47C312.428 113.47 312.374 113.471 312.32 113.473C309.463 113.564 306.517 115.556 303.803 119.234C303.794 119.246 303.785 119.258 303.778 119.27L303.49 119.704C303.297 119.996 303.29 120.373 303.472 120.672L303.768 121.154C306.342 124.93 309.211 127.03 312.065 127.229C312.183 127.237 312.3 127.241 312.416 127.241C316.977 127.241 321.086 121.272 321.263 121.011C321.463 120.716 321.47 120.331 321.281 120.028C321.113 119.759 317.129 113.47 312.481 113.47ZM312.188 125.433C309.916 125.276 307.531 123.462 305.311 120.223C307.667 117.055 310.11 115.344 312.377 115.272C312.412 115.271 312.447 115.27 312.481 115.27C315.23 115.27 318.159 118.663 319.425 120.485C318.073 122.281 314.947 125.617 312.188 125.433Z" fill="#E2E8F0"/>
<path d="M293.666 103.548C293.822 103.843 294.129 104.025 294.46 104.025C294.477 104.025 294.493 104.024 294.511 104.024L295.075 103.991C299.621 103.512 302.83 101.981 304.354 99.5621C306.868 95.5701 303.386 88.8011 303.237 88.5151C303.071 88.1991 302.743 88.0071 302.379 88.0331C302.057 88.0551 294.462 88.6031 292.36 92.8201C291.086 95.3811 291.446 98.9181 293.419 103.087L293.666 103.548ZM293.973 93.6211C295.212 91.1371 299.672 90.1411 301.906 89.8841C302.85 91.9221 304.319 96.2431 302.833 98.6011C301.618 100.527 298.892 101.769 294.987 102.19C293.314 98.6161 292.963 95.6541 293.973 93.6211Z" fill="#E2E8F0"/>
<path d="M306.07 108.374L306.718 108.711C309.953 110.21 312.898 110.964 315.443 110.964C317.122 110.964 318.628 110.636 319.929 109.976C325.305 107.243 325.937 97.4102 325.961 96.9932C325.982 96.6372 325.79 96.3022 325.473 96.1402C325.101 95.9502 316.308 91.5102 311.222 94.7712C308.134 96.7522 306.198 100.913 305.626 106.805C305.624 106.819 305.623 106.834 305.622 106.848L305.589 107.533C305.572 107.882 305.76 108.211 306.07 108.374ZM307.419 106.957C307.939 101.645 309.589 97.9562 312.193 96.2862C315.773 93.9882 322.211 96.6192 324.111 97.4852C323.895 99.5622 322.901 106.446 319.113 108.371C316.35 109.772 312.324 109.325 307.513 107.097L307.415 107.046L307.419 106.957Z" fill="#E2E8F0"/>
<path d="M336.224 171.239C332.56 171.424 328.813 174.073 325.389 178.901C325.38 178.913 325.372 178.925 325.364 178.937L324.995 179.515C324.806 179.811 324.806 180.189 324.995 180.484L325.39 181.097C328.813 185.924 332.56 188.573 336.226 188.759C336.334 188.764 336.441 188.767 336.549 188.767C342.442 188.767 347.687 180.833 347.912 180.489C348.106 180.19 348.106 179.804 347.912 179.505C347.684 179.158 342.269 170.934 336.224 171.239ZM336.315 186.962C333.221 186.806 329.951 184.418 326.882 180.093L326.821 179.999L326.869 179.924C329.958 175.573 333.224 173.192 336.314 173.036C340.567 172.83 344.844 178.304 346.061 179.999C344.844 181.696 340.55 187.212 336.315 186.962Z" fill="#E2E8F0"/>
<path d="M327.885 171.984C332.05 169.77 332.39 162.164 332.403 161.842C332.417 161.486 332.219 161.155 331.898 160.998C331.608 160.857 324.743 157.56 320.826 160.174C318.449 161.763 317.004 165.012 316.643 169.611L316.627 170.133C316.617 170.484 316.811 170.808 317.125 170.965L317.631 171.217C320.061 172.288 322.276 172.826 324.202 172.826C325.59 172.827 326.827 172.547 327.885 171.984ZM321.826 161.671C324.136 160.131 328.499 161.482 330.565 162.369C330.37 164.608 329.495 169.09 327.041 170.395C325.029 171.465 322.044 171.186 318.449 169.611C318.772 165.677 319.94 162.932 321.826 161.671Z" fill="#E2E8F0"/>
<path d="M261.485 56.3292C259.053 57.8342 257.495 61.0292 256.979 65.5712C256.977 65.5852 256.975 65.5992 256.975 65.6132L256.941 66.1342C256.918 66.4842 257.101 66.8162 257.409 66.9842L257.907 67.2532C260.444 68.4792 262.761 69.0972 264.769 69.0972C266.015 69.0972 267.143 68.8582 268.128 68.3792C272.361 66.3132 272.974 58.7232 272.998 58.4012C273.024 58.0462 272.839 57.7082 272.524 57.5402C272.238 57.3882 265.497 53.8482 261.485 56.3292ZM271.141 58.8622C270.865 61.0942 269.831 65.5442 267.337 66.7612C265.291 67.7592 262.319 67.3762 258.777 65.6772C259.238 61.7562 260.501 59.0542 262.431 57.8602C264.797 56.3992 269.109 57.9022 271.141 58.8622Z" fill="#E2E8F0"/>
<path d="M171.216 317.633C171.21 317.62 171.204 317.607 171.197 317.594L170.964 317.127C170.808 316.813 170.494 316.632 170.132 316.629L169.567 316.647C165.011 317.005 161.762 318.45 160.172 320.829C157.558 324.746 160.856 331.61 160.997 331.9C161.148 332.21 161.463 332.405 161.806 332.405C161.817 332.405 161.829 332.405 161.84 332.404C162.163 332.392 169.769 332.051 171.983 327.885C173.326 325.361 173.06 321.815 171.216 317.633ZM170.394 327.042C169.089 329.498 164.606 330.372 162.368 330.567C161.48 328.501 160.129 324.137 161.67 321.828C162.936 319.935 165.695 318.766 169.608 318.449C171.187 322.067 171.459 325.038 170.394 327.042Z" fill="#E2E8F0"/>
<path d="M252.377 53.9281L252.69 54.5381C252.844 54.8391 253.154 55.0281 253.491 55.0281C253.503 55.0281 253.515 55.0281 253.527 55.0271L254.257 54.9971C260.151 54.4731 264.328 52.5731 266.338 49.5021C269.633 44.4521 265.275 35.6141 265.088 35.2411C264.928 34.9221 264.624 34.7341 264.239 34.7451C263.822 34.7661 253.987 35.3061 251.205 40.6691C249.517 43.9271 249.916 48.4991 252.358 53.8901C252.364 53.9031 252.37 53.9161 252.377 53.9281ZM252.802 41.4971C254.762 37.7181 261.653 36.7871 263.729 36.5901C264.579 38.4961 267.155 44.9531 264.829 48.5181C263.134 51.1111 259.423 52.7311 254.141 53.2021L254.029 53.2061L253.989 53.1271C251.79 48.2651 251.379 44.2431 252.802 41.4971Z" fill="#E2E8F0"/>
<path d="M190.387 316.646L189.865 316.63C189.511 316.633 189.189 316.815 189.033 317.128L188.782 317.633C186.938 321.816 186.672 325.361 188.014 327.887C190.229 332.052 197.834 332.392 198.157 332.405C198.168 332.406 198.18 332.406 198.191 332.406C198.534 332.406 198.848 332.211 199 331.901C199.141 331.611 202.439 324.747 199.823 320.828C198.234 318.451 194.986 317.006 190.387 316.646ZM197.629 330.567C195.39 330.372 190.908 329.497 189.602 327.042C188.534 325.03 188.812 322.047 190.387 318.45C194.322 318.773 197.067 319.941 198.327 321.828C199.867 324.137 198.517 328.501 197.629 330.567Z" fill="#E2E8F0"/>
<path d="M239.925 56.7571L240.367 57.0341C240.513 57.1251 240.678 57.1711 240.844 57.1711C241.015 57.1711 241.187 57.1221 241.336 57.0251L241.809 56.7151C245.51 54.0331 247.527 51.1041 247.642 48.2471C247.83 43.5331 241.434 39.4041 241.162 39.2311C240.861 39.0391 240.476 39.0431 240.179 39.2411C239.91 39.4201 233.601 43.6851 233.884 48.3871C234.057 51.2401 236.134 54.1271 239.925 56.7571ZM240.691 41.0821C242.526 42.3771 245.955 45.3891 245.844 48.1731C245.752 50.4491 244.008 52.8851 240.834 55.1981C237.6 52.9341 235.818 50.5421 235.68 48.2781C235.514 45.5071 238.883 42.4191 240.691 41.0821Z" fill="#E2E8F0"/>
<path d="M327.885 188.015C325.36 186.672 321.815 186.939 317.632 188.783C317.619 188.789 317.606 188.794 317.593 188.801L317.126 189.034C316.811 189.19 316.617 189.516 316.627 189.866L316.646 190.431C317.004 194.987 318.449 198.236 320.828 199.826C321.933 200.563 323.272 200.83 324.634 200.83C328.095 200.83 331.691 199.102 331.899 199C332.22 198.843 332.418 198.513 332.404 198.157C332.391 197.835 332.051 190.23 327.885 188.015ZM321.826 198.329C319.933 197.063 318.764 194.304 318.448 190.391C322.066 188.812 325.036 188.541 327.04 189.604C329.496 190.91 330.37 195.392 330.565 197.631C328.5 198.519 324.134 199.868 321.826 198.329Z" fill="#E2E8F0"/>
<path d="M66.3319 256.451C66.1669 256.142 65.8379 255.952 65.4879 255.977L64.9239 256.01C60.3769 256.489 57.1679 258.021 55.6439 260.439C53.1289 264.43 56.6119 271.199 56.7609 271.486C56.9169 271.785 57.2249 271.969 57.5589 271.969C57.5779 271.969 57.5979 271.968 57.6189 271.967C57.9409 271.946 65.5359 271.397 67.6379 267.18C68.9109 264.62 68.5509 261.084 66.5779 256.912L66.3319 256.451ZM66.0268 266.378C64.7878 268.863 60.3278 269.858 58.0938 270.115C57.1498 268.078 55.6809 263.756 57.1669 261.398C58.3809 259.472 61.1079 258.23 65.0129 257.809C66.6849 261.385 67.0358 264.347 66.0268 266.378Z" fill="#E2E8F0"/>
<path d="M47.5162 246.53C47.5692 246.53 47.6232 246.529 47.6772 246.527C50.5342 246.437 53.4792 244.444 56.1942 240.766C56.2032 240.755 56.2112 240.742 56.2192 240.731L56.5082 240.297C56.7032 240.004 56.7102 239.626 56.5262 239.327L56.2302 238.846C53.6572 235.071 50.7892 232.97 47.9342 232.77C43.2072 232.45 38.9162 238.721 38.7352 238.988C38.5352 239.283 38.5282 239.669 38.7162 239.971C38.8842 240.242 42.8682 246.53 47.5162 246.53ZM47.8102 234.567C50.0822 234.724 52.4672 236.537 54.6872 239.777C52.3312 242.945 49.8882 244.657 47.6212 244.729C47.5862 244.73 47.5512 244.73 47.5172 244.73C44.7682 244.73 41.8382 241.337 40.5722 239.515C41.9212 237.718 45.0522 234.367 47.8102 234.567Z" fill="#E2E8F0"/>
<path d="M53.9277 251.627L53.2797 251.29C47.9097 248.802 43.3397 248.365 40.0677 250.025C34.6927 252.758 34.0607 262.591 34.0367 263.008C34.0157 263.364 34.2077 263.698 34.5247 263.861C34.7967 264.001 39.5937 266.422 44.1387 266.422C45.7947 266.422 47.4177 266.1 48.7757 265.23C51.8627 263.249 53.7987 259.087 54.3717 253.196C54.3737 253.182 54.3747 253.167 54.3757 253.153L54.4097 252.468C54.4257 252.117 54.2377 251.789 53.9277 251.627ZM52.5787 253.043C52.0587 258.354 50.4077 262.045 47.8047 263.715C44.2227 266.012 37.7847 263.381 35.8867 262.516C36.1017 260.439 37.0897 253.559 40.8847 251.63C43.6467 250.228 47.6717 250.676 52.4847 252.903L52.5827 252.955L52.5787 253.043Z" fill="#E2E8F0"/>
<path d="M98.5115 303.671C100.943 302.166 102.501 298.97 103.018 294.429C103.02 294.414 103.022 294.399 103.022 294.385L103.055 293.865C103.077 293.515 102.895 293.184 102.587 293.017L102.09 292.747C97.9745 290.759 94.4405 290.369 91.8685 291.621C87.6355 293.686 87.0225 301.276 86.9985 301.598C86.9725 301.953 87.1575 302.292 87.4725 302.459C87.6845 302.571 91.4485 304.55 95.0165 304.55C96.2585 304.551 97.4755 304.311 98.5115 303.671ZM88.8555 301.138C89.1315 298.906 90.1655 294.456 92.6595 293.239C94.7085 292.239 97.6795 292.624 101.22 294.324C100.757 298.245 99.4945 300.946 97.5655 302.14C95.1965 303.606 90.8865 302.099 88.8555 301.138Z" fill="#E2E8F0"/>
<path d="M253.194 305.627C253.18 305.625 253.165 305.624 253.151 305.624L252.466 305.591C252.084 305.567 251.786 305.763 251.625 306.073L251.288 306.721C248.801 312.091 248.363 316.659 250.023 319.932C252.756 325.308 262.589 325.94 263.006 325.964C263.023 325.965 263.04 325.966 263.058 325.966C263.395 325.966 263.704 325.778 263.859 325.476C264.05 325.104 268.488 316.31 265.228 311.225C263.247 308.134 259.086 306.199 253.194 305.627ZM262.514 324.113C260.437 323.898 253.557 322.91 251.628 319.115C250.226 316.352 250.674 312.328 252.901 307.515L252.953 307.417L253.042 307.421C258.352 307.941 262.042 309.591 263.713 312.195C266.011 315.778 263.379 322.214 262.514 324.113Z" fill="#E2E8F0"/>
<path d="M107.623 306.07L107.309 305.46C107.149 305.149 106.841 304.936 106.472 304.972L105.743 305.002C99.8487 305.526 95.6717 307.425 93.6617 310.497C90.3667 315.548 94.7247 324.385 94.9117 324.758C95.0657 325.064 95.3777 325.255 95.7167 325.255C95.7307 325.255 95.7457 325.255 95.7607 325.254C96.1777 325.234 106.013 324.693 108.794 319.33C110.482 316.074 110.083 311.503 107.642 306.11C107.636 306.097 107.629 306.084 107.623 306.07ZM107.197 318.504C105.238 322.282 98.3487 323.213 96.2697 323.41C95.4207 321.503 92.8477 315.041 95.1697 311.482C96.8647 308.889 100.576 307.269 105.858 306.798L105.97 306.794L106.011 306.873C108.21 311.737 108.62 315.758 107.197 318.504Z" fill="#E2E8F0"/>
<path d="M267.179 292.362C264.618 291.089 261.081 291.449 256.912 293.421L256.452 293.666C256.143 293.831 255.956 294.161 255.976 294.511L256.009 295.076C256.488 299.623 258.019 302.831 260.438 304.355C261.491 305.019 262.736 305.265 264.006 305.265C267.549 305.265 271.274 303.348 271.485 303.238C271.801 303.073 271.99 302.736 271.967 302.38C271.945 302.059 271.396 294.464 267.179 292.362ZM261.397 302.833C259.471 301.618 258.229 298.892 257.807 294.987C261.382 293.315 264.343 292.965 266.377 293.973C268.861 295.211 269.857 299.671 270.113 301.905C268.073 302.848 263.748 304.315 261.397 302.833Z" fill="#E2E8F0"/>
<path d="M120.073 303.243L119.63 302.966C119.334 302.78 118.955 302.785 118.661 302.976L118.188 303.286C114.487 305.968 112.47 308.896 112.356 311.753C112.168 316.467 118.564 320.596 118.836 320.77C118.984 320.864 119.152 320.911 119.319 320.911C119.493 320.911 119.667 320.861 119.818 320.76C120.087 320.581 126.396 316.315 126.113 311.613C125.938 308.759 123.862 305.873 120.073 303.243ZM119.306 318.917C117.471 317.622 114.042 314.611 114.153 311.825C114.244 309.55 115.988 307.113 119.162 304.801C122.396 307.065 124.178 309.457 124.317 311.721C124.483 314.493 121.114 317.581 119.306 318.917Z" fill="#E2E8F0"/>
<path d="M306.109 252.358C306.096 252.364 306.083 252.37 306.07 252.377L305.46 252.69C305.148 252.85 304.957 253.176 304.971 253.527L305.001 254.257C305.525 260.151 307.425 264.328 310.496 266.338C311.874 267.236 313.534 267.566 315.225 267.566C319.737 267.566 324.485 265.224 324.757 265.088C325.076 264.928 325.271 264.595 325.253 264.239C325.233 263.822 324.692 253.987 319.329 251.205C316.073 249.516 311.503 249.916 306.109 252.358ZM323.408 263.73C321.501 264.578 315.038 267.151 311.48 264.829C308.887 263.134 307.267 259.423 306.796 254.141L306.792 254.029L306.871 253.989C311.732 251.789 315.753 251.38 318.502 252.803C322.281 254.763 323.211 261.651 323.408 263.73Z" fill="#E2E8F0"/>
<path d="M56.7128 118.189C54.0298 114.487 51.1018 112.471 48.2448 112.356C43.5638 112.147 39.4028 118.564 39.2288 118.836C39.0368 119.137 39.0418 119.522 39.2388 119.819C39.4148 120.082 43.4968 126.123 48.0768 126.123C48.1798 126.123 48.2828 126.12 48.3858 126.114C51.2398 125.941 54.1248 123.865 56.7558 120.074L57.0328 119.631C57.2188 119.334 57.2148 118.955 57.0228 118.661L56.7128 118.189ZM48.2768 124.318C45.5068 124.482 42.4178 121.116 41.0808 119.307C42.3758 117.473 45.3618 114.05 48.1718 114.154C50.4468 114.245 52.8838 115.989 55.1968 119.163C52.9338 122.398 50.5408 124.18 48.2768 124.318Z" fill="#E2E8F0"/>
<path d="M45.2542 109.822C47.7742 109.822 50.6872 109.092 53.8892 107.642C53.9022 107.636 53.9152 107.629 53.9282 107.623L54.5382 107.31C54.8512 107.15 55.0412 106.823 55.0272 106.472L54.9962 105.743C54.4722 99.8481 52.5732 95.6712 49.5012 93.6622C44.4532 90.3672 35.6142 94.7252 35.2402 94.9122C34.9212 95.0722 34.7262 95.4052 34.7432 95.7612C34.7632 96.1782 35.3052 106.014 40.6682 108.795C41.9912 109.481 43.5302 109.822 45.2542 109.822ZM36.5892 96.2691C38.4952 95.4201 44.9512 92.8431 48.5182 95.1701C51.1102 96.8651 52.7302 100.576 53.2012 105.859L53.2052 105.97L53.1272 106.01C48.2642 108.209 44.2452 108.62 41.4962 107.196C37.7172 105.237 36.7862 98.3471 36.5892 96.2691Z" fill="#E2E8F0"/>
<path d="M303.285 241.811C305.966 245.512 308.895 247.529 311.752 247.644C311.821 247.647 311.888 247.648 311.957 247.648C316.585 247.648 320.598 241.431 320.769 241.163C320.961 240.862 320.956 240.477 320.759 240.18C320.579 239.911 316.338 233.602 311.612 233.885C308.758 234.057 305.872 236.134 303.242 239.925L302.965 240.367C302.779 240.664 302.782 241.043 302.975 241.336L303.285 241.811ZM311.721 235.682C314.496 235.543 317.58 238.885 318.916 240.693C317.622 242.528 314.615 245.969 311.824 245.846C309.548 245.754 307.112 244.01 304.8 240.836C307.064 237.602 309.457 235.82 311.721 235.682Z" fill="#E2E8F0"/>
<path d="M65.57 103.02C65.585 103.022 65.599 103.023 65.614 103.024L66.134 103.058C66.153 103.059 66.173 103.06 66.192 103.06C66.52 103.06 66.824 102.881 66.982 102.59L67.252 102.093C69.24 97.9781 69.63 94.4441 68.378 91.8721C66.312 87.6401 58.723 87.0261 58.401 87.0031C58.049 86.9731 57.708 87.1631 57.54 87.4771C57.389 87.7621 53.848 94.5021 56.328 98.5151C57.832 100.944 61.028 102.503 65.57 103.02ZM58.861 88.8571C61.092 89.1321 65.542 90.1671 66.76 92.6601C67.757 94.7081 67.375 97.6801 65.675 101.22C61.754 100.758 59.052 99.4961 57.858 97.5661C56.397 95.2011 57.901 90.8891 58.861 88.8571Z" fill="#E2E8F0"/>
<path d="M240.765 303.804C240.753 303.795 240.74 303.786 240.728 303.778L240.294 303.49C240.003 303.295 239.624 303.289 239.326 303.472L238.844 303.768C235.068 306.342 232.968 309.21 232.768 312.065C232.448 316.764 238.72 321.082 238.987 321.263C239.139 321.367 239.316 321.418 239.492 321.418C239.657 321.418 239.822 321.372 239.969 321.281C240.242 321.11 246.673 317.036 246.525 312.32C246.436 309.463 244.443 306.518 240.765 303.804ZM239.514 319.426C237.718 318.074 234.376 314.958 234.566 312.189C234.723 309.917 236.537 307.532 239.776 305.311C242.944 307.667 244.656 310.11 244.728 312.377C244.815 315.157 241.36 318.143 239.514 319.426Z" fill="#E2E8F0"/>
<path d="M294.429 256.981C294.415 256.979 294.4 256.978 294.386 256.977L293.866 256.943C293.516 256.926 293.185 257.104 293.017 257.411L292.747 257.908C290.759 262.023 290.369 265.557 291.621 268.13C293.686 272.363 301.276 272.976 301.598 273C301.62 273.002 301.643 273.003 301.665 273.003C301.996 273.003 302.302 272.821 302.46 272.527C302.611 272.242 306.152 265.502 303.671 261.489C302.167 259.055 298.971 257.497 294.429 256.981ZM301.138 271.144C298.906 270.868 294.456 269.834 293.239 267.34C292.241 265.292 292.624 262.321 294.324 258.78C298.245 259.241 300.946 260.504 302.14 262.434C303.602 264.799 302.098 269.112 301.138 271.144Z" fill="#E2E8F0"/>
<path d="M42.8714 189.034L42.3664 188.783C38.1834 186.939 34.6394 186.672 32.1124 188.015C27.9474 190.23 27.6064 197.835 27.5944 198.157C27.5804 198.514 27.7784 198.844 28.0984 199.001C28.3064 199.103 31.9014 200.83 35.3624 200.83C36.7234 200.83 38.0654 200.563 39.1704 199.825C41.5474 198.237 42.9924 194.989 43.3544 190.389L43.3704 189.867C43.3804 189.516 43.1864 189.191 42.8714 189.034ZM38.1714 198.329C35.8644 199.87 31.4974 198.519 29.4304 197.631C29.6234 195.393 30.4954 190.914 32.9564 189.604C34.9694 188.535 37.9524 188.814 41.5484 190.389C41.2244 194.324 40.0564 197.069 38.1714 198.329Z" fill="#E2E8F0"/>
<path d="M34.609 181.099C34.618 181.087 34.626 181.074 34.634 181.063L35.003 180.486C35.192 180.19 35.192 179.811 35.003 179.516L34.608 178.902C31.184 174.076 27.437 171.426 23.771 171.24C23.663 171.234 23.556 171.232 23.449 171.232C17.556 171.232 12.31 179.167 12.085 179.511C11.891 179.809 11.891 180.195 12.085 180.494C12.309 180.838 17.545 188.771 23.446 188.771C23.555 188.771 23.664 188.768 23.773 188.763C27.437 188.576 31.184 185.927 34.609 181.099ZM23.682 186.963C19.443 187.196 15.152 181.696 13.935 180.001C15.152 178.305 19.452 172.815 23.681 173.037C26.775 173.194 30.046 175.582 33.115 179.907L33.175 180L33.128 180.075C30.037 184.426 26.77 186.807 23.682 186.963Z" fill="#E2E8F0"/>
<path d="M181.097 325.391C181.086 325.382 181.073 325.374 181.061 325.366L180.483 324.997C180.188 324.809 179.809 324.81 179.514 324.997L178.901 325.392C174.075 328.815 171.425 332.562 171.238 336.228C170.939 342.252 179.159 347.685 179.509 347.914C179.658 348.011 179.829 348.06 180 348.06C180.171 348.06 180.342 348.012 180.491 347.914C180.841 347.686 189.062 342.26 188.76 336.226C188.574 332.562 185.924 328.815 181.097 325.391ZM179.999 346.063C178.304 344.846 172.824 340.57 173.035 336.317C173.191 333.222 175.579 329.953 179.905 326.884L179.999 326.823L180.074 326.871C184.425 329.961 186.805 333.226 186.961 336.316C187.174 340.568 181.693 344.846 179.999 346.063Z" fill="#E2E8F0"/>
<path d="M32.1116 171.985C33.1686 172.547 34.4066 172.827 35.7946 172.827C37.7196 172.827 39.9356 172.288 42.3656 171.217C42.3786 171.211 42.3916 171.205 42.4056 171.199L42.8726 170.966C43.1866 170.809 43.3806 170.484 43.3696 170.134L43.3506 169.569C42.9916 165.013 41.5476 161.765 39.1686 160.174C35.2506 157.561 28.3876 160.858 28.0966 160.999C27.7756 161.155 27.5776 161.486 27.5926 161.843C27.6046 162.165 27.9456 169.771 32.1116 171.985ZM38.1696 161.671C40.0626 162.936 41.2316 165.695 41.5486 169.609C37.9286 171.187 34.9596 171.459 32.9566 170.395C30.5006 169.09 29.6266 164.607 29.4306 162.368C31.4966 161.482 35.8606 160.131 38.1696 161.671Z" fill="#E2E8F0"/>
</svg>
