<svg width="122" height="131" viewBox="0 0 122 131" fill="none" xmlns="http://www.w3.org/2000/svg">
<path fill-rule="evenodd" clip-rule="evenodd" d="M18.3245 51.9041L13.1195 43.025C12.1575 41.384 12.7715 39.272 14.4695 38.413C19.7935 35.718 30.9855 30.5521 40.0395 29.7161C56.8255 28.1661 75.1625 50.981 49.3365 72.328C49.3365 72.328 55.5345 76.46 59.9245 76.202C64.3145 75.944 66.3805 72.5871 70.2545 66.1301C74.1285 59.674 79.2935 45.4701 96.0795 44.9531C112.866 44.4361 126.554 65.355 120.098 94.021C113.642 122.687 89.6235 126.044 80.3265 114.165C71.0295 102.285 75.9365 87.3071 75.9365 87.3071C75.9365 87.3071 76.7115 104.093 94.2725 99.961C111.834 95.829 115.191 79.301 113.384 68.196C111.576 57.091 100.73 52.184 91.9485 64.58C83.1685 76.976 78.5195 85.757 62.7665 82.399C62.7665 82.399 73.1485 103.42 61.2165 120.606C50.6285 135.857 1.81853 141.966 0.269531 75.123C0.269531 75.123 10.0265 115.213 37.4575 112.356C61.8625 109.814 62.9945 81.4961 37.8975 82.8291C37.0155 82.8761 36.1565 82.555 35.4975 81.968C33.5965 80.274 29.9045 76.227 28.1925 69.2C27.6295 66.89 29.6095 64.76 31.9535 65.152C35.2455 65.703 39.8115 65.993 43.9135 64.579C51.4025 61.997 57.3425 49.6001 45.2045 47.0181C36.5155 45.1691 27.4295 50.07 22.9685 53.004C21.3955 54.039 19.2765 53.5271 18.3245 51.9041ZM52.9525 11.064C52.9525 11.064 51.4025 38.9551 78.5195 39.9881C96.7155 40.6811 105.662 33.3741 109.081 29.53C110.157 28.321 110.205 26.5181 109.19 25.2571L103.528 18.2251C102.429 16.8601 100.46 16.586 99.0375 17.609C91.1875 23.26 66.5105 37.965 52.9525 11.064ZM73.1675 1.12705L66.1475 8.82205C64.8695 10.2231 65.0315 12.4111 66.5025 13.6081L74.0305 19.737C75.3265 20.792 77.2065 20.7121 78.4085 19.5521L85.4335 12.771C86.7935 11.458 86.7755 9.27405 85.3955 7.98305L77.8615 0.940051C76.5185 -0.315949 74.4075 -0.231952 73.1675 1.12705Z" fill="#E2E8F0"/>
</svg>
