<svg width="75" height="75" viewBox="0 0 75 75" fill="none" xmlns="http://www.w3.org/2000/svg">
<rect width="75" height="75" rx="37.5" fill="url(#paint0_linear_1029_12770)" fill-opacity="0.2"/>
<path d="M28.4327 26.0986C29.3775 25.3713 29.8499 25.0077 30.3952 24.7735C30.6424 24.6673 30.8994 24.5815 31.1633 24.5171C31.7452 24.375 32.3622 24.375 33.5962 24.375H41.4044C42.6385 24.375 43.2555 24.375 43.8374 24.5171C44.1012 24.5815 44.3583 24.6673 44.6055 24.7735C45.1507 25.0077 45.6231 25.3713 46.568 26.0986C49.6984 28.5086 51.2638 29.7136 51.8003 31.2741C52.039 31.9681 52.1281 32.6981 52.063 33.4234C51.9162 35.0539 50.6806 36.5463 48.2093 39.5307L42.3855 46.564C40.1437 49.2714 39.0228 50.625 37.5003 50.625C35.9778 50.625 34.857 49.2714 32.6152 46.564L26.7914 39.5307C24.32 36.5463 23.0844 35.0539 22.9377 33.4234C22.8725 32.6981 22.9617 31.9681 23.2003 31.2741C23.7369 29.7136 25.3022 28.5086 28.4327 26.0986Z" stroke="#1D293D" stroke-width="2"/>
<path d="M34.583 32.396H40.4163" stroke="#1D293D" stroke-width="2" stroke-linecap="round" stroke-linejoin="round"/>
<defs>
<linearGradient id="paint0_linear_1029_12770" x1="37.5" y1="0" x2="37.5" y2="75" gradientUnits="userSpaceOnUse">
<stop stop-color="#FF8835"/>
<stop offset="1" stop-color="#FF5858"/>
</linearGradient>
</defs>
</svg>
