<svg width="75" height="75" viewBox="0 0 75 75" fill="none" xmlns="http://www.w3.org/2000/svg">
<rect width="75" height="75" rx="37.5" fill="url(#paint0_linear_1029_24994)" fill-opacity="0.2"/>
<path d="M41.6205 27.8393C45.7043 24.9302 49.0394 23.6376 50.2009 24.7991C51.3623 25.9607 50.0698 29.2958 47.1606 33.3795M47.1606 33.3795C45.5093 35.6977 43.337 38.257 40.797 40.797C38.257 43.337 35.6977 45.5093 33.3795 47.1606M47.1606 33.3795C47.7009 34.6446 48 36.0374 48 37.5C48 43.2991 43.2991 48 37.5 48C36.0374 48 34.6446 47.7009 33.3795 47.1606M27.8393 41.6205C24.9302 45.7043 23.6376 49.0394 24.7991 50.2009C25.9607 51.3623 29.2958 50.0698 33.3795 47.1606M44.9247 30.0754C43.0245 28.1753 40.3995 27 37.5 27C31.701 27 27 31.701 27 37.5C27 40.3995 28.1753 43.0245 30.0754 44.9247" stroke="#1D293D" stroke-width="2" stroke-linecap="round" stroke-linejoin="round"/>
<defs>
<linearGradient id="paint0_linear_1029_24994" x1="37.5" y1="0" x2="37.5" y2="75" gradientUnits="userSpaceOnUse">
<stop stop-color="#FF8835"/>
<stop offset="1" stop-color="#FF5858"/>
</linearGradient>
</defs>
</svg>
