<svg width="75" height="75" viewBox="0 0 75 75" fill="none" xmlns="http://www.w3.org/2000/svg">
<rect width="75" height="75" rx="37.5" fill="url(#paint0_linear_1029_25233)" fill-opacity="0.2"/>
<path d="M25.5084 37.4158C24.1258 35.0051 23.4583 33.0366 23.0558 31.0412C22.4605 28.0901 23.8228 25.2073 26.0797 23.3678C27.0335 22.5904 28.127 22.856 28.691 23.8679L29.9644 26.1524C30.9737 27.9632 31.4784 28.8685 31.3783 29.8284C31.2782 30.7883 30.5976 31.5701 29.2364 33.1336L25.5084 37.4158ZM25.5084 37.4158C28.3068 42.2953 32.6983 46.6892 37.5833 49.4908M37.5833 49.4908C39.9941 50.8733 41.9626 51.541 43.958 51.9435C46.9091 52.5388 49.7919 51.1764 51.6313 48.9195C52.4088 47.9657 52.1432 46.8723 51.1313 46.3082L48.8468 45.0348C47.036 44.0254 46.1306 43.5209 45.1708 43.6209C44.2109 43.7209 43.4291 44.4015 41.8656 45.7628L37.5833 49.4908Z" stroke="#1D293D" stroke-width="2" stroke-linejoin="round"/>
<defs>
<linearGradient id="paint0_linear_1029_25233" x1="37.5" y1="0" x2="37.5" y2="75" gradientUnits="userSpaceOnUse">
<stop stop-color="#FF8835"/>
<stop offset="1" stop-color="#FF5858"/>
</linearGradient>
</defs>
</svg>
