<svg width="75" height="75" viewBox="0 0 75 75" fill="none" xmlns="http://www.w3.org/2000/svg">
<rect width="75" height="75" rx="37.5" fill="url(#paint0_linear_1029_25435)" fill-opacity="0.2"/>
<path d="M40.0188 25.0226L42.5851 30.1978C42.9351 30.9182 43.8683 31.6092 44.6558 31.7415L49.3073 32.5207C52.282 33.0206 52.982 35.1965 50.8384 37.3431L47.2222 40.9892C46.6097 41.6066 46.2744 42.7975 46.4639 43.6504L47.4993 48.1639C48.3158 51.7365 46.4347 53.1186 43.2997 51.2513L38.9397 48.6491C38.1524 48.1786 36.8546 48.1786 36.0525 48.6491L31.6927 51.2513C28.5722 53.1186 26.6765 51.7218 27.4931 48.1639L28.5284 43.6504C28.718 42.7975 28.3826 41.6066 27.7702 40.9892L24.1539 37.3431C22.025 35.1965 22.7103 33.0206 25.685 32.5207L30.3366 31.7415C31.1094 31.6092 32.0426 30.9182 32.3926 30.1978L34.9589 25.0226C36.3588 22.2145 38.6335 22.2145 40.0188 25.0226Z" stroke="#1D293D" stroke-width="2" stroke-linecap="round" stroke-linejoin="round"/>
<defs>
<linearGradient id="paint0_linear_1029_25435" x1="37.5" y1="0" x2="37.5" y2="75" gradientUnits="userSpaceOnUse">
<stop stop-color="#FF8835"/>
<stop offset="1" stop-color="#FF5858"/>
</linearGradient>
</defs>
</svg>
