<svg width="25" height="24" viewBox="0 0 25 24" fill="none" xmlns="http://www.w3.org/2000/svg">
<path d="M21.5 7V12M3.5 7C3.5 10.0645 3.5 16.7742 3.5 17.1613C3.5 18.5438 5.44564 19.3657 9.33693 21.0095C10.9002 21.6698 11.6818 22 12.5 22V11.3548" stroke="#00A63E" stroke-width="1.5" stroke-linecap="round" stroke-linejoin="round"/>
<path d="M15.5 19C15.5 19 16.375 19 17.25 21C17.25 21 20.0294 16 22.5 15" stroke="#00A63E" stroke-width="1.5" stroke-linecap="round" stroke-linejoin="round"/>
<path d="M8.82592 9.69138L5.90472 8.27785C4.30157 7.5021 3.5 7.11423 3.5 6.5C3.5 5.88577 4.30157 5.4979 5.90472 4.72215L8.82592 3.30862C10.6288 2.43621 11.5303 2 12.5 2C13.4697 2 14.3712 2.4362 16.1741 3.30862L19.0953 4.72215C20.6984 5.4979 21.5 5.88577 21.5 6.5C21.5 7.11423 20.6984 7.5021 19.0953 8.27785L16.1741 9.69138C14.3712 10.5638 13.4697 11 12.5 11C11.5303 11 10.6288 10.5638 8.82592 9.69138Z" stroke="#00A63E" stroke-width="1.5" stroke-linecap="round" stroke-linejoin="round"/>
<path d="M6.5 12L8.5 13" stroke="#00A63E" stroke-width="1.5" stroke-linecap="round" stroke-linejoin="round"/>
<path d="M17.5 4L7.5 9" stroke="#00A63E" stroke-width="1.5" stroke-linecap="round" stroke-linejoin="round"/>
</svg>
