<svg width="21" height="21" viewBox="0 0 21 21" fill="none" xmlns="http://www.w3.org/2000/svg">
<path d="M7.16797 6.33333C7.16797 6.33333 8.9978 4.06988 10.005 3.19907C10.1669 3.05908 10.3487 2.99293 10.5294 3.0006C10.6915 3.00747 10.8526 3.0737 10.9978 3.19926C12.0047 4.07023 13.8346 6.33333 13.8346 6.33333M10.5294 3.83333V13" stroke="black" stroke-width="1.5" stroke-linecap="round" stroke-linejoin="round"/>
<path d="M7.16536 9.66797C5.99859 9.66797 5.4152 9.66797 4.96955 9.89505C4.57755 10.0948 4.25884 10.4135 4.0591 10.8055C3.83203 11.2511 3.83203 11.8346 3.83203 13.0013V13.8346C3.83203 15.7988 3.83203 16.7809 4.44222 17.3911C5.05242 18.0013 6.03451 18.0013 7.9987 18.0013H12.9987C14.9629 18.0013 15.9449 18.0013 16.5552 17.3911C17.1654 16.7809 17.1654 15.7988 17.1654 13.8346V13.0013C17.1654 11.8346 17.1654 11.2511 16.9383 10.8055C16.7385 10.4135 16.4199 10.0948 16.0279 9.89505C15.5822 9.66797 14.9988 9.66797 13.832 9.66797" stroke="black" stroke-width="1.5" stroke-linecap="round" stroke-linejoin="round"/>
</svg>
