<svg width="442" height="442" viewBox="0 0 442 442" fill="none" xmlns="http://www.w3.org/2000/svg">
<g clip-path="url(#clip0_647_42013)">
<path d="M377.644 362.838H57.9956L57.7366 362.529C57.5898 362.354 43.2204 344.844 57.6871 324.011C72.1113 303.242 74.9312 294.974 67.2926 276.394C65.9622 273.16 64.272 269.66 62.4836 265.955C53.4845 247.313 42.2851 224.113 62.8284 206.239C64.4647 204.815 66.0585 203.434 67.6144 202.088C88.5837 183.926 102.438 171.929 107.741 150.515C109.913 141.749 114.649 129.203 124.886 119.222C134.534 109.815 146.63 105.045 160.841 105.045C171.902 105.045 184.157 108.012 197.266 113.864C235.974 131.14 249.649 136.163 265.678 136.163C271.01 136.163 276.69 135.636 284.132 134.891C287.112 134.594 290.167 134.442 293.209 134.442C312.696 134.442 329.602 140.423 339.591 150.85C347.502 159.108 351.228 169.969 350.663 183.133C350.325 191.054 349.785 197.767 349.311 203.69C347.381 227.748 346.66 236.749 364.619 252.259C390.654 274.746 407.815 315.497 377.901 362.438L377.644 362.838ZM58.8203 361.106H376.693C405.66 315.266 388.899 275.519 363.487 253.57C344.862 237.487 345.658 227.551 347.582 203.551C348.056 197.643 348.593 190.948 348.931 183.057C349.475 170.386 345.911 159.952 338.339 152.048C328.674 141.96 312.225 136.175 293.208 136.175C290.223 136.175 287.227 136.323 284.304 136.616C276.811 137.365 271.091 137.895 265.678 137.895C249.328 137.895 235.528 132.839 196.56 115.446C183.674 109.695 171.657 106.778 160.841 106.778C151.344 106.778 119.57 109.963 109.423 150.932C103.987 172.879 89.969 185.02 68.7494 203.398C67.1954 204.742 65.6015 206.124 63.9661 207.547C44.4217 224.552 55.3029 247.092 64.0457 265.203C65.8464 268.931 67.5472 272.454 68.8962 275.737C77.2358 296.023 73.089 304.874 59.1121 325C46.4231 343.271 57.0417 358.751 58.8203 361.106Z" fill="#E3EDFC"/>
<path d="M64.6546 361.971C64.6546 361.971 50.9429 345.679 64.6546 325.932C78.3681 306.186 81.6593 298.016 73.98 279.34C66.3007 260.661 46.294 232.962 69.461 212.803C92.6288 192.644 107.382 181.147 112.923 158.775C120.157 129.565 146.271 101.044 197.887 124.081C249.503 147.119 254.439 147.118 281.864 144.376C309.289 141.634 346.589 151.526 344.943 189.912C343.297 228.298 336.714 238.121 358.655 257.072C380.596 276.02 401.439 314.634 371.271 361.971H64.6546Z" fill="#E3EDFC"/>
<path d="M184.565 193.447C184.565 193.447 171.359 274.979 221.81 274.979C272.26 274.979 260.463 190.271 260.463 190.271L186.115 193.448" fill="#814C4A"/>
<g opacity="0.2">
<path d="M189.422 204.934C189.422 204.934 189.415 205.82 189.402 207.372C189.38 208.92 189.441 211.132 189.524 213.777C189.617 216.423 189.792 219.503 190.088 222.786C190.224 224.428 190.441 226.119 190.647 227.835C190.877 229.546 191.129 231.282 191.463 233.003C191.757 234.73 192.132 236.442 192.541 238.115C192.738 238.953 192.985 239.769 193.188 240.587C193.415 241.402 193.67 242.193 193.902 242.978C194.171 243.753 194.434 244.513 194.692 245.257C194.979 245.99 195.244 246.716 195.531 247.409C195.835 248.096 196.132 248.762 196.417 249.409C196.73 250.042 197.032 250.656 197.322 251.243C197.966 252.384 198.542 253.444 199.137 254.334C199.684 255.259 200.29 255.972 200.731 256.607C201.697 257.805 202.27 258.493 202.27 258.493C202.27 258.493 202.106 258.343 201.797 258.065C201.498 257.778 201.016 257.392 200.477 256.83C199.966 256.244 199.269 255.585 198.615 254.713C198.283 254.283 197.893 253.844 197.547 253.341C197.202 252.833 196.84 252.298 196.462 251.741C196.118 251.165 195.759 250.56 195.387 249.936C195.036 249.302 194.708 248.628 194.352 247.942C194.018 247.246 193.703 246.519 193.365 245.782C193.05 245.035 192.766 244.258 192.46 243.476C191.909 241.887 191.351 240.239 190.92 238.526C190.482 236.818 190.076 235.074 189.761 233.314C189.44 231.552 189.202 229.78 188.988 228.035C188.786 226.29 188.663 224.564 188.57 222.896C188.466 221.227 188.445 219.611 188.439 218.08C188.428 216.55 188.473 215.105 188.532 213.771C188.646 211.104 188.896 208.892 189.066 207.348C189.255 205.807 189.422 204.934 189.422 204.934Z" fill="#B76A6A"/>
<path d="M195.646 204.934C195.646 204.934 195.701 205.758 195.794 207.2C195.845 207.919 195.907 208.793 195.979 209.795C196.059 210.794 196.149 211.922 196.247 213.151C196.363 214.379 196.489 215.71 196.621 217.114C196.763 218.52 196.922 219.997 197.107 221.524C197.261 223.055 197.51 224.622 197.719 226.221C197.905 227.824 198.227 229.431 198.475 231.049C198.746 232.663 199.074 234.264 199.371 235.846C199.758 237.408 200.048 238.967 200.429 240.452C200.855 241.92 201.183 243.368 201.597 244.71C202.029 246.048 202.437 247.312 202.815 248.479C203.258 249.624 203.663 250.674 204.023 251.605C204.112 251.84 204.2 252.066 204.282 252.283C204.383 252.495 204.479 252.697 204.571 252.892C204.755 253.284 204.924 253.645 205.076 253.969C205.677 255.285 206.02 256.038 206.02 256.038C206.02 256.038 205.567 255.347 204.774 254.136C204.578 253.829 204.361 253.492 204.125 253.122C204.008 252.937 203.886 252.744 203.758 252.545C203.651 252.335 203.539 252.117 203.424 251.892C202.963 250.994 202.442 249.974 201.891 248.853C201.394 247.71 200.896 246.454 200.37 245.123C199.866 243.784 199.432 242.34 198.956 240.853C198.526 239.357 198.13 237.794 197.735 236.205C197.414 234.602 197.058 232.978 196.767 231.343C196.535 229.7 196.229 228.065 196.061 226.442C195.855 224.823 195.702 223.223 195.59 221.672C195.445 220.126 195.391 218.624 195.333 217.202C195.254 215.781 195.273 214.434 195.254 213.194C195.257 208.226 195.646 204.934 195.646 204.934Z" fill="#B76A6A"/>
<path d="M205.156 207.172C205.156 207.172 205.332 210.239 205.594 214.84C205.726 217.133 205.881 219.809 206.046 222.675C206.141 224.105 206.24 225.582 206.34 227.085C206.443 228.586 206.556 230.108 206.699 231.63C206.819 233.152 206.958 234.671 207.122 236.164C207.292 237.653 207.441 239.124 207.635 240.538C207.831 241.953 208.028 243.317 208.241 244.609C208.47 245.895 208.702 247.107 208.939 248.226C209.199 249.335 209.45 250.348 209.707 251.241C209.985 252.123 210.213 252.905 210.468 253.519C210.696 254.149 210.91 254.629 211.063 254.956C211.21 255.284 211.291 255.459 211.291 255.459C211.291 255.459 211.182 255.3 210.981 255.002C210.777 254.702 210.465 254.267 210.155 253.664C209.81 253.077 209.463 252.331 209.082 251.463C208.905 251.024 208.718 250.557 208.52 250.065C208.348 249.563 208.168 249.035 207.979 248.485C207.811 247.927 207.635 247.348 207.454 246.747C207.299 246.14 207.139 245.512 206.973 244.867C206.671 243.571 206.368 242.2 206.127 240.771C205.887 239.342 205.632 237.864 205.46 236.354C205.274 234.846 205.111 233.311 204.974 231.774C204.85 230.238 204.756 228.698 204.672 227.184C204.586 225.67 204.56 224.177 204.525 222.734C204.474 219.848 204.512 217.153 204.603 214.847C204.769 210.234 205.156 207.172 205.156 207.172Z" fill="#B76A6A"/>
<path d="M254.193 204.934C254.193 204.934 254.2 205.82 254.212 207.372C254.234 208.92 254.173 211.132 254.091 213.777C253.996 216.423 253.822 219.503 253.526 222.786C253.39 224.428 253.173 226.119 252.967 227.835C252.737 229.546 252.484 231.282 252.15 233.003C251.856 234.73 251.481 236.442 251.072 238.115C250.875 238.953 250.628 239.769 250.425 240.587C250.198 241.402 249.944 242.193 249.71 242.978C249.441 243.753 249.179 244.513 248.921 245.257C248.635 245.99 248.369 246.716 248.083 247.409C247.778 248.096 247.481 248.762 247.195 249.409C246.883 250.042 246.581 250.656 246.292 251.243C245.648 252.384 245.072 253.444 244.477 254.334C243.93 255.259 243.323 255.972 242.883 256.607C241.917 257.805 241.344 258.493 241.344 258.493C241.344 258.493 241.51 258.343 241.818 258.065C242.116 257.778 242.599 257.392 243.137 256.83C243.647 256.244 244.344 255.585 244.998 254.713C245.33 254.283 245.72 253.844 246.066 253.341C246.412 252.833 246.773 252.298 247.152 251.741C247.496 251.165 247.855 250.56 248.227 249.936C248.578 249.302 248.906 248.628 249.261 247.942C249.596 247.246 249.91 246.519 250.248 245.782C250.562 245.035 250.847 244.258 251.153 243.476C251.704 241.887 252.264 240.239 252.693 238.526C253.131 236.818 253.536 235.074 253.853 233.314C254.173 231.552 254.412 229.78 254.624 228.035C254.827 226.29 254.95 224.564 255.045 222.896C255.148 221.227 255.169 219.611 255.174 218.08C255.185 216.55 255.14 215.105 255.08 213.771C254.968 211.104 254.716 208.892 254.547 207.348C254.359 205.807 254.193 204.934 254.193 204.934Z" fill="#B76A6A"/>
<path d="M247.968 204.934C247.968 204.934 247.913 205.758 247.82 207.2C247.769 207.919 247.707 208.793 247.636 209.795C247.556 210.794 247.465 211.922 247.366 213.151C247.251 214.379 247.125 215.71 246.992 217.114C246.851 218.52 246.691 219.997 246.507 221.524C246.351 223.055 246.104 224.622 245.894 226.221C245.709 227.824 245.388 229.431 245.138 231.049C244.866 232.663 244.54 234.264 244.241 235.846C243.856 237.408 243.564 238.967 243.184 240.452C242.758 241.92 242.429 243.368 242.016 244.71C241.584 246.048 241.175 247.312 240.799 248.479C240.356 249.624 239.95 250.674 239.591 251.605C239.5 251.84 239.415 252.066 239.33 252.283C239.23 252.495 239.134 252.697 239.042 252.892C238.858 253.284 238.689 253.645 238.537 253.969C237.936 255.285 237.594 256.038 237.594 256.038C237.594 256.038 238.047 255.347 238.838 254.136C239.035 253.829 239.253 253.492 239.487 253.122C239.606 252.937 239.728 252.744 239.854 252.545C239.961 252.335 240.072 252.117 240.187 251.892C240.65 250.994 241.17 249.974 241.72 248.853C242.218 247.71 242.715 246.454 243.242 245.123C243.746 243.784 244.181 242.34 244.657 240.853C245.087 239.357 245.483 237.794 245.877 236.205C246.199 234.602 246.554 232.978 246.845 231.343C247.079 229.7 247.383 228.065 247.553 226.442C247.757 224.823 247.911 223.223 248.022 221.672C248.168 220.126 248.221 218.624 248.28 217.202C248.357 215.781 248.339 214.434 248.357 213.194C248.356 208.226 247.968 204.934 247.968 204.934Z" fill="#B76A6A"/>
<path d="M238.458 207.172C238.458 207.172 238.281 210.239 238.02 214.84C237.887 217.133 237.732 219.809 237.567 222.675C237.472 224.105 237.373 225.582 237.274 227.085C237.17 228.586 237.056 230.108 236.913 231.63C236.795 233.152 236.656 234.671 236.491 236.164C236.322 237.653 236.172 239.124 235.979 240.538C235.781 241.953 235.585 243.317 235.373 244.609C235.143 245.895 234.912 247.107 234.674 248.226C234.415 249.335 234.164 250.348 233.906 251.241C233.628 252.123 233.4 252.905 233.147 253.519C232.917 254.149 232.703 254.629 232.551 254.956C232.402 255.284 232.322 255.459 232.322 255.459C232.322 255.459 232.431 255.3 232.633 255.002C232.834 254.702 233.148 254.267 233.458 253.664C233.803 253.077 234.149 252.331 234.531 251.463C234.708 251.024 234.895 250.557 235.094 250.065C235.265 249.563 235.446 249.035 235.635 248.485C235.803 247.927 235.978 247.348 236.161 246.747C236.314 246.14 236.475 245.512 236.641 244.867C236.944 243.571 237.246 242.2 237.488 240.771C237.728 239.342 237.983 237.864 238.154 236.354C238.341 234.846 238.504 233.311 238.64 231.774C238.765 230.238 238.859 228.698 238.943 227.184C239.03 225.67 239.056 224.177 239.088 222.734C239.141 219.848 239.103 217.153 239.011 214.847C238.844 210.234 238.458 207.172 238.458 207.172Z" fill="#B76A6A"/>
</g>
<path d="M230.546 222.176H221.811H213.068L205.602 252.505L221.811 274.982L238.017 250.647L230.546 222.176Z" fill="#FFAE8A"/>
<path d="M230.545 222.176H221.809H213.066L211.246 229.567C216.414 234.766 227.152 238.207 233.773 234.481L230.545 222.176Z" fill="#F79B77"/>
<path d="M190.808 192.302C190.808 192.302 185.547 183.836 182.389 187.86C179.229 191.884 184.317 201.586 190.808 199.933V192.302Z" fill="#FFAE8A"/>
<path d="M252.814 192.302C252.814 192.302 258.072 183.836 261.226 187.86C264.385 191.884 259.297 201.586 252.814 199.933V192.302Z" fill="#FFAE8A"/>
<path d="M221.918 146.297C186.136 146.297 188.946 192.012 189.645 203.154C190.346 214.3 197.185 218.13 206.132 225.15C215.076 232.163 221.918 231.424 221.918 231.424C221.918 231.424 228.76 232.163 237.705 225.15C246.647 218.131 253.487 214.3 254.185 203.154C254.892 192.012 257.703 146.297 221.918 146.297Z" fill="#FFAE8A"/>
<path opacity="0.5" d="M254.342 186.799C254.563 192.802 254.247 197.889 254.067 200.73C253.369 211.876 246.531 215.706 237.586 222.724C228.641 229.738 221.799 229 221.799 229C221.799 229 214.956 229.738 206.012 222.724C197.066 215.706 190.229 211.876 189.527 200.73C189.491 200.161 189.449 199.499 189.408 198.761C189.48 200.526 189.573 202.021 189.644 203.155C190.345 214.301 197.185 218.13 206.131 225.15C215.075 232.164 221.917 231.425 221.917 231.425C221.917 231.425 228.759 232.164 237.705 225.15C246.646 218.131 253.487 214.301 254.184 203.155C254.387 199.939 254.765 193.842 254.342 186.799Z" fill="#FFBCA1"/>
<path d="M267.129 245.934L234.818 238.459C234.818 248.578 223.429 248.549 222.511 248.364V248.351C222.511 248.351 222.498 248.353 222.478 248.356C222.459 248.353 222.445 248.351 222.445 248.351V248.364C221.526 248.549 209.06 248.578 209.06 238.459L177.828 245.934L184.49 276.761C184.49 276.761 175.911 295.551 190.859 308.839L193.603 354.661H222.445H222.511H252.297L254.095 308.839C269.042 295.551 260.465 276.761 260.465 276.761L267.129 245.934Z" fill="#FAC849"/>
<path d="M222.435 251.484V251.467C222.435 251.467 222.451 251.47 222.477 251.476C222.503 251.47 222.519 251.467 222.519 251.467V251.484C223.672 251.716 237.877 251.75 238.05 239.205L234.817 238.457C234.817 248.576 223.428 248.547 222.51 248.362V248.349C222.51 248.349 222.498 248.351 222.477 248.354C222.458 248.351 222.445 248.349 222.445 248.349V248.362C221.525 248.547 209.059 248.576 209.059 238.457L205.547 239.297C205.814 251.748 221.284 251.716 222.435 251.484Z" fill="#F9B212"/>
<path d="M230.943 187.612C230.943 187.612 230.721 185.028 231.607 184.512C232.494 183.993 240.363 183.735 243.244 184.512C246.124 185.287 247.343 188.87 247.343 188.87C247.343 188.87 246.302 187.38 241.864 186.918C238.609 186.582 232.049 188.13 230.943 187.612Z" fill="#AA6868"/>
<path d="M212.893 187.612C212.893 187.612 213.115 185.028 212.228 184.512C211.344 183.993 203.475 183.735 200.595 184.512C197.712 185.287 196.49 188.87 196.49 188.87C196.49 188.87 197.533 187.38 201.969 186.918C205.229 186.582 211.786 188.13 212.893 187.612Z" fill="#AA6868"/>
<path d="M241.279 196.389C241.279 198.293 240.234 199.839 238.942 199.839C237.652 199.839 236.605 198.293 236.605 196.389C236.605 194.486 237.652 192.943 238.942 192.943C240.235 192.943 241.279 194.486 241.279 196.389Z" fill="#111B24"/>
<path d="M207.727 196.389C207.727 198.293 206.68 199.839 205.39 199.839C204.1 199.839 203.055 198.293 203.055 196.389C203.055 194.486 204.1 192.943 205.39 192.943C206.68 192.943 207.727 194.486 207.727 196.389Z" fill="#111B24"/>
<path d="M211.584 214.131C211.584 214.131 214.632 221.356 221.916 221.356C229.197 221.356 232.231 214.131 232.231 214.131C232.231 214.131 223.723 217.937 211.584 214.131Z" fill="#F4472A"/>
<path d="M211.605 214.18C211.605 214.18 216.622 218.319 222.051 218.319C227.479 218.319 232.112 214.18 232.112 214.18C232.112 214.18 223.599 218.973 211.605 214.18Z" fill="white"/>
<path d="M232.518 213.936C232.518 213.936 225.338 213.496 223.953 213.936C222.582 214.372 222.506 214.41 222.053 214.41C221.573 214.41 221.52 214.373 220.153 213.936C218.764 213.496 211.584 213.936 211.584 213.936C220.032 218.153 230.961 215.52 232.518 213.936Z" fill="#F4472A"/>
<path d="M209.895 213.383C217.064 217.084 226.845 217.335 233.94 213.383C234.1 213.294 233.944 213.088 233.779 213.179C226.774 217.083 217.137 216.834 210.054 213.179C209.886 213.091 209.728 213.298 209.895 213.383Z" fill="#F4472A"/>
<path d="M218.18 207.173C218.18 207.173 218.7 207.35 219.483 207.617C219.858 207.725 220.266 207.861 220.69 207.953C220.901 208.004 221.116 208.036 221.328 208.074C221.543 208.087 221.754 208.139 221.965 208.121C222.175 208.147 222.382 208.118 222.589 208.104C222.799 208.111 222.996 208.031 223.204 208.014C223.409 207.982 223.601 207.899 223.802 207.857C224.005 207.82 224.18 207.718 224.364 207.665C224.539 207.594 224.723 207.551 224.865 207.475C225.009 207.404 225.15 207.353 225.265 207.307C225.499 207.218 225.65 207.172 225.65 207.172C225.65 207.172 225.611 207.312 225.509 207.55C225.401 207.779 225.265 208.141 224.957 208.464C224.805 208.628 224.667 208.844 224.446 208.99C224.232 209.141 224.014 209.33 223.744 209.453C223.468 209.559 223.191 209.722 222.872 209.761C222.559 209.831 222.235 209.872 221.911 209.853C221.584 209.855 221.272 209.784 220.967 209.712C220.671 209.626 220.384 209.514 220.132 209.379C219.619 209.112 219.22 208.765 218.927 208.435C218.331 207.777 218.18 207.173 218.18 207.173Z" fill="#F89675"/>
<g opacity="0.1">
<path d="M206.321 205.849C206.321 209.012 203.407 211.577 199.812 211.577C196.216 211.577 193.303 209.012 193.303 205.849C193.303 202.686 196.216 200.121 199.812 200.121C203.407 200.121 206.321 202.686 206.321 205.849Z" fill="#F4472A"/>
<path d="M251.365 205.849C251.365 209.012 248.45 211.577 244.856 211.577C241.261 211.577 238.348 209.012 238.348 205.849C238.348 202.686 241.261 200.121 244.856 200.121C248.45 200.121 251.365 202.686 251.365 205.849Z" fill="#F4472A"/>
</g>
<path d="M266.974 245.934C266.974 245.934 278.52 249.896 284.057 263.061C289.593 276.226 303.133 315.901 300.929 324.719C298.562 334.191 252.749 352.432 252.749 352.432L245.82 340.466C245.82 340.466 274.162 320.626 278.885 316.848L260.466 276.76L266.974 245.934Z" fill="#F4B425"/>
<path d="M177.939 245.934C177.939 245.934 166.392 249.896 160.856 263.061C155.319 276.226 141.779 315.901 143.982 324.719C146.35 334.191 192.163 352.432 192.163 352.432L199.092 340.466C199.092 340.466 170.751 320.626 166.027 316.848L184.488 276.76L177.939 245.934Z" fill="#F4B425"/>
<path d="M237.848 308.227C231.595 306.29 225.679 304.652 222.458 304.652C219.233 304.652 213.32 306.29 207.065 308.227C200.808 310.164 196.34 309.124 196.34 309.124C200.781 311.875 206.926 312.259 213.022 310.017C218.401 308.036 222.458 308.082 222.458 308.082C222.458 308.082 226.459 308.186 231.891 310.017C238.1 312.11 244.131 311.875 248.571 309.124C248.57 309.124 244.104 310.164 237.848 308.227Z" fill="#F4B425"/>
<path d="M261.166 189.538C259.831 188.373 258.731 188.48 257.84 189.231C257.735 189.283 257.652 189.36 257.599 189.454C256.041 191.036 255.189 194.583 254.918 196.245C254.808 196.928 255.852 197.222 255.963 196.533C256.149 195.39 256.814 192.031 258.029 190.534C258.742 191.83 258.813 193.377 258.005 194.701C257.641 195.298 258.577 195.841 258.941 195.246C259.962 193.574 259.878 191.503 258.893 189.871C259.341 189.716 259.841 189.817 260.399 190.304C260.923 190.76 261.692 189.998 261.166 189.538Z" fill="#F4885D"/>
<path d="M183.077 189.538C184.411 188.373 185.513 188.48 186.402 189.231C186.508 189.283 186.59 189.36 186.643 189.454C188.201 191.036 189.054 194.583 189.323 196.245C189.435 196.928 188.391 197.222 188.279 196.533C188.095 195.39 187.428 192.031 186.214 190.534C185.502 191.83 185.43 193.377 186.238 194.701C186.603 195.298 185.665 195.841 185.302 195.246C184.282 193.574 184.367 191.503 185.351 189.871C184.902 189.716 184.401 189.817 183.844 190.304C183.319 190.76 182.55 189.998 183.077 189.538Z" fill="#F4885D"/>
<path d="M247.423 343.237C247.423 343.237 237.467 343.087 235.879 344.531C234.292 345.975 229.527 354.782 230.25 355.648C230.971 356.514 242.233 354.492 245.118 353.338C248.006 352.184 251.827 350.845 251.827 350.845L247.423 343.237Z" fill="#FFAE8A"/>
<path d="M197.087 343.237C197.087 343.237 207.041 343.087 208.629 344.531C210.218 345.975 214.981 354.782 214.259 355.648C213.537 356.514 202.277 354.492 199.389 353.338C196.503 352.184 192.682 350.845 192.682 350.845L197.087 343.237Z" fill="#FFAE8A"/>
<path d="M189.339 190.272C189.339 190.272 206.534 181.404 211.247 164.513C211.247 164.513 225.32 188.314 254.492 190.272C254.492 190.272 257.294 186.383 260.446 187.141C260.446 187.141 262.447 141.416 221.808 141.416C181.168 141.416 184.638 186.79 184.638 186.79C184.638 186.79 186.871 187.431 189.339 190.272Z" fill="#814C4A"/>
<g opacity="0.2">
<path d="M216.537 157.154C216.537 157.154 216.939 157.665 217.681 158.519C218.423 159.373 219.489 160.579 220.831 161.96C221.488 162.662 222.246 163.381 223.024 164.156C223.808 164.927 224.683 165.689 225.555 166.507C226.472 167.277 227.38 168.115 228.376 168.881C228.865 169.275 229.357 169.67 229.853 170.067C230.352 170.457 230.882 170.813 231.395 171.188C231.913 171.559 232.409 171.959 232.938 172.309C233.469 172.656 233.997 173.001 234.522 173.345C235.558 174.052 236.631 174.658 237.662 175.264C238.68 175.894 239.722 176.391 240.694 176.901C241.184 177.152 241.659 177.398 242.118 177.635C242.59 177.844 243.047 178.047 243.486 178.24C244.37 178.615 245.163 179.017 245.89 179.306C246.625 179.583 247.266 179.825 247.792 180.025C248.847 180.446 249.451 180.686 249.451 180.686C249.451 180.686 248.814 180.577 247.698 180.356C247.139 180.239 246.461 180.099 245.683 179.936C244.911 179.751 244.063 179.461 243.127 179.168C242.659 179.02 242.172 178.863 241.668 178.703C241.174 178.516 240.677 178.292 240.157 178.077C239.123 177.635 238.005 177.216 236.937 176.606C235.857 176.024 234.7 175.486 233.631 174.759C233.086 174.414 232.535 174.066 231.982 173.719C231.433 173.366 230.913 172.965 230.377 172.588C229.854 172.193 229.315 171.819 228.808 171.409C228.306 170.992 227.804 170.579 227.309 170.167C226.805 169.766 226.325 169.343 225.873 168.9C225.413 168.466 224.961 168.037 224.515 167.616C223.649 166.748 222.831 165.891 222.093 165.046C221.352 164.202 220.669 163.391 220.081 162.606C219.468 161.846 218.965 161.099 218.511 160.451C218.066 159.794 217.697 159.209 217.404 158.719C216.816 157.742 216.537 157.154 216.537 157.154Z" fill="#B76A6A"/>
<path d="M220.725 151.09C220.725 151.09 222.424 152.617 225.018 154.792C225.671 155.331 226.377 155.915 227.124 156.533C227.878 157.139 228.674 157.777 229.498 158.437C231.174 159.716 232.939 161.108 234.787 162.381L236.15 163.367C236.614 163.676 237.078 163.985 237.536 164.291C238.451 164.911 239.356 165.512 240.25 166.066C241.134 166.639 242.002 167.168 242.836 167.658C243.666 168.154 244.447 168.632 245.193 169.028C245.93 169.443 246.608 169.825 247.207 170.164C247.82 170.479 248.355 170.756 248.795 170.983C249.673 171.449 250.173 171.733 250.173 171.733C250.173 171.733 249.624 171.587 248.666 171.302C248.187 171.155 247.608 170.975 246.941 170.768C246.287 170.531 245.555 170.245 244.759 169.923C244.362 169.759 243.939 169.603 243.519 169.415C243.1 169.215 242.669 169.008 242.225 168.796C241.336 168.374 240.398 167.925 239.473 167.378C238.537 166.851 237.558 166.324 236.622 165.692C236.149 165.387 235.67 165.08 235.19 164.771L233.781 163.791C232.843 163.132 231.946 162.422 231.055 161.731C230.154 161.052 229.344 160.292 228.521 159.605C226.926 158.17 225.488 156.779 224.336 155.509C223.164 154.261 222.263 153.148 221.649 152.359C221.038 151.568 220.725 151.09 220.725 151.09Z" fill="#B76A6A"/>
<path d="M223.324 146.469C223.324 146.469 225.59 146.522 228.891 147.319C229.711 147.533 230.609 147.734 231.529 148.054C231.993 148.203 232.469 148.356 232.955 148.514C233.432 148.698 233.921 148.886 234.416 149.077C235.415 149.446 236.404 149.936 237.418 150.41C238.408 150.936 239.411 151.481 240.388 152.069L241.806 153.028L242.511 153.506L243.174 154.034C244.057 154.734 244.922 155.426 245.661 156.211C246.039 156.593 246.42 156.957 246.775 157.331C247.146 157.688 247.424 158.122 247.741 158.497C248.341 159.276 248.956 159.97 249.355 160.735C249.8 161.468 250.187 162.147 250.528 162.746C250.814 163.376 251.025 163.943 251.211 164.401C251.573 165.321 251.763 165.845 251.763 165.845C251.763 165.845 251.439 165.376 250.905 164.558C250.642 164.149 250.323 163.655 249.96 163.088C249.532 162.562 249.052 161.97 248.551 161.321C248.081 160.644 247.398 160.05 246.771 159.354C246.156 158.645 245.385 158.014 244.625 157.332C243.896 156.614 243.004 156.034 242.165 155.366L241.525 154.874L240.842 154.43L239.471 153.538C238.545 152.957 237.591 152.417 236.649 151.895C235.674 151.432 234.763 150.871 233.812 150.473C233.343 150.257 232.882 150.043 232.431 149.834C231.972 149.64 231.526 149.449 231.089 149.263C230.218 148.885 229.373 148.578 228.602 148.266C227.042 147.689 225.728 147.224 224.794 146.931C223.865 146.622 223.324 146.469 223.324 146.469Z" fill="#B76A6A"/>
<path d="M209.176 157.154C209.176 157.154 209.082 157.666 208.835 158.542C208.586 159.415 208.199 160.66 207.605 162.103C207.037 163.559 206.246 165.202 205.316 166.921C204.811 167.758 204.358 168.666 203.771 169.511C203.209 170.372 202.637 171.245 202.009 172.081C201.693 172.498 201.386 172.92 201.063 173.327C200.73 173.726 200.398 174.125 200.069 174.521C199.435 175.334 198.706 176.041 198.033 176.752C197.376 177.478 196.654 178.096 195.985 178.694C195.65 178.991 195.325 179.281 195.009 179.561C194.673 179.815 194.349 180.063 194.037 180.302C193.414 180.775 192.845 181.206 192.32 181.56C191.779 181.893 191.308 182.183 190.921 182.423C190.14 182.888 189.689 183.14 189.689 183.14C189.689 183.14 190.058 182.769 190.715 182.147C191.044 181.842 191.445 181.471 191.904 181.046C192.343 180.603 192.839 180.102 193.38 179.556C193.65 179.285 193.932 179.004 194.223 178.712C194.5 178.407 194.787 178.093 195.084 177.77C195.676 177.126 196.305 176.455 196.912 175.721C197.535 175.001 198.166 174.249 198.781 173.46C199.093 173.071 199.406 172.677 199.721 172.283L200.617 171.055C201.242 170.255 201.817 169.419 202.379 168.591C202.957 167.775 203.478 166.939 204.01 166.147C204.502 165.33 205.017 164.562 205.463 163.806C205.903 163.05 206.341 162.342 206.716 161.673C208.243 159.011 209.176 157.154 209.176 157.154Z" fill="#B76A6A"/>
<path d="M212.918 148.058C212.918 148.058 212.79 148.09 212.557 148.17C212.321 148.238 211.987 148.38 211.56 148.532C211.14 148.714 210.626 148.905 210.06 149.187C209.485 149.443 208.866 149.79 208.19 150.155C207.846 150.325 207.519 150.565 207.166 150.778C206.818 151.003 206.443 151.204 206.094 151.473C205.738 151.728 205.371 151.99 204.998 152.257C204.641 152.546 204.276 152.841 203.907 153.14C203.138 153.705 202.484 154.452 201.738 155.114C201.042 155.829 200.364 156.587 199.709 157.359C199.105 158.175 198.422 158.935 197.882 159.782C197.367 160.64 196.744 161.42 196.286 162.264C195.835 163.109 195.368 163.916 194.928 164.686C194.549 165.486 194.19 166.246 193.858 166.945C193.688 167.294 193.526 167.631 193.371 167.95C193.225 168.275 193.109 168.591 192.988 168.884C192.746 169.472 192.533 169.985 192.359 170.406C191.999 171.252 191.775 171.734 191.775 171.734C191.775 171.734 191.857 171.217 192.029 170.31C192.12 169.857 192.232 169.308 192.359 168.676C192.43 168.362 192.491 168.022 192.582 167.671C192.692 167.328 192.809 166.965 192.93 166.588C193.177 165.833 193.435 165.007 193.753 164.15C194.126 163.317 194.517 162.431 194.951 161.53C195.146 161.067 195.432 160.641 195.686 160.193C195.946 159.746 196.215 159.298 196.494 158.85C197.046 157.95 197.747 157.127 198.376 156.258C199.086 155.45 199.82 154.659 200.574 153.916C201.37 153.216 202.134 152.503 202.974 151.938C203.388 151.65 203.776 151.34 204.19 151.088C204.61 150.846 205.02 150.607 205.421 150.376C206.218 149.917 207.025 149.571 207.762 149.262C208.51 148.969 209.202 148.728 209.834 148.569C210.453 148.375 211.018 148.297 211.471 148.202C212.389 148.058 212.918 148.058 212.918 148.058Z" fill="#B76A6A"/>
</g>
<path d="M187.321 180.835L182.125 180.812C182.127 180.385 182.777 138.096 222.514 138.096C262.138 138.096 262.597 180.398 262.597 180.825H257.4C257.397 179.295 256.915 143.294 222.514 143.294C208.008 143.294 197.696 149.543 191.864 161.872C187.415 171.272 187.322 180.742 187.321 180.835Z" fill="#5D93F4"/>
<path opacity="0.5" d="M187.322 180.836C187.323 180.743 187.416 171.273 191.865 161.872C197.697 149.544 208.01 143.294 222.515 143.294C256.916 143.294 257.398 179.296 257.401 180.825H260.129C259.881 175.414 256.935 141.416 222.506 141.416C187.956 141.416 184.867 175.451 184.598 180.825L187.322 180.836Z" fill="#1A65D3"/>
<path d="M256.745 201.24C251.998 205.3 247.25 209.362 242.504 213.423C241.353 214.407 242.81 216.261 243.968 215.271C248.713 211.211 253.46 207.149 258.208 203.088C259.359 202.104 257.903 200.248 256.745 201.24Z" fill="#5D93F4"/>
<path d="M247.938 210.684C248.813 211.784 248.63 213.385 247.529 214.26L243.563 217.414C242.462 218.289 240.861 218.105 239.987 217.006C239.112 215.905 239.295 214.305 240.395 213.429L244.362 210.275C245.461 209.401 247.063 209.584 247.938 210.684Z" fill="#1A65D3"/>
<path opacity="0.5" d="M247.939 210.684C247.342 209.934 246.407 209.622 245.523 209.77C245.662 209.885 245.793 210.011 245.908 210.156C246.783 211.257 246.601 212.858 245.499 213.733L241.532 216.887C241.184 217.165 240.783 217.323 240.373 217.394C241.279 218.134 242.609 218.174 243.563 217.416L247.53 214.262C248.63 213.386 248.813 211.785 247.939 210.684Z" fill="#0952AA"/>
<path d="M186.681 178.086H184.724V179.093C182.727 181.206 181.309 186.441 181.309 192.583C181.309 198.723 182.727 203.96 184.724 206.073V207.078H186.681C189.647 207.078 192.053 200.587 192.053 192.583C192.052 184.576 189.647 178.086 186.681 178.086Z" fill="#1A65D3"/>
<path d="M184.724 178.086C184.242 178.086 183.777 178.273 183.332 178.595C181.309 179.663 177.793 182.908 177.793 192.583C177.793 201.286 180.638 204.674 182.682 205.989C183.312 206.687 184 207.077 184.724 207.077C187.691 207.077 190.096 200.586 190.096 192.582C190.096 184.576 187.69 178.086 184.724 178.086Z" fill="#5D93F4"/>
<path opacity="0.2" d="M186.266 178.701C187.628 181.331 188.518 185.624 188.518 190.486C188.518 198.491 186.112 204.982 183.145 204.982C182.422 204.982 181.735 204.59 181.105 203.893C180.732 203.653 180.333 203.343 179.928 202.945C180.806 204.495 181.814 205.432 182.681 205.988C183.311 206.687 183.999 207.077 184.723 207.077C187.69 207.077 190.095 200.586 190.095 192.582C190.095 186.024 188.48 180.49 186.266 178.701Z" fill="#814C4A"/>
<path opacity="0.2" d="M182.846 181.98C182.846 181.98 182.785 182.244 182.68 182.704C182.584 183.161 182.452 183.792 182.315 184.537C182.255 184.914 182.172 185.305 182.111 185.731C182.038 186.15 181.97 186.591 181.909 187.048C181.83 187.498 181.794 187.978 181.719 188.449C181.665 188.927 181.612 189.412 181.558 189.899C181.514 190.39 181.47 190.879 181.426 191.361C181.404 191.848 181.347 192.326 181.316 192.794C181.294 193.262 181.261 193.718 181.222 194.156C181.195 194.597 181.169 195.014 181.146 195.399C181.064 196.182 181.047 196.842 180.987 197.318C180.94 197.793 180.89 198.075 180.89 198.075C180.89 198.075 180.772 197.841 180.604 197.412C180.442 196.98 180.191 196.36 180.019 195.569C179.928 195.176 179.828 194.745 179.752 194.282C179.689 193.818 179.63 193.324 179.582 192.809C179.543 192.294 179.537 191.754 179.533 191.208C179.531 190.661 179.589 190.107 179.622 189.551C179.693 189.001 179.763 188.449 179.867 187.917C179.986 187.387 180.091 186.865 180.254 186.382C180.396 185.891 180.567 185.436 180.747 185.015C180.917 184.593 181.122 184.219 181.302 183.878C181.689 183.207 182.073 182.718 182.361 182.411C182.654 182.107 182.846 181.98 182.846 181.98Z" fill="white"/>
<path d="M257.264 178.086H259.221V179.093C261.22 181.206 262.637 186.441 262.637 192.583C262.637 198.723 261.219 203.96 259.221 206.073V207.078H257.264C254.297 207.078 251.893 200.587 251.893 192.583C251.892 184.576 254.296 178.086 257.264 178.086Z" fill="#1A65D3"/>
<path d="M259.22 178.086C259.702 178.086 260.166 178.273 260.61 178.595C262.633 179.663 266.149 182.908 266.149 192.583C266.149 201.286 263.305 204.674 261.261 205.989C260.631 206.687 259.943 207.077 259.22 207.077C256.253 207.077 253.848 200.586 253.848 192.582C253.848 184.576 256.253 178.086 259.22 178.086Z" fill="#5D93F4"/>
<path opacity="0.2" d="M257.675 178.701C256.313 181.331 255.424 185.624 255.424 190.486C255.424 198.491 257.829 204.981 260.795 204.981C261.517 204.981 262.207 204.59 262.836 203.892C263.209 203.653 263.609 203.342 264.013 202.945C263.137 204.494 262.126 205.431 261.261 205.988C260.631 206.687 259.943 207.076 259.22 207.076C256.253 207.076 253.848 200.586 253.848 192.582C253.848 186.024 255.461 180.49 257.675 178.701Z" fill="#814C4A"/>
<path opacity="0.2" d="M261.096 181.98C261.096 181.98 261.155 182.244 261.262 182.704C261.357 183.161 261.49 183.792 261.624 184.537C261.685 184.914 261.768 185.305 261.829 185.731C261.902 186.15 261.969 186.591 262.032 187.048C262.11 187.498 262.147 187.978 262.221 188.449C262.274 188.927 262.329 189.412 262.381 189.899C262.427 190.39 262.471 190.879 262.514 191.361C262.536 191.848 262.591 192.326 262.624 192.794C262.645 193.262 262.68 193.718 262.719 194.156C262.745 194.597 262.773 195.014 262.797 195.399C262.877 196.182 262.894 196.842 262.955 197.318C263.002 197.793 263.05 198.075 263.05 198.075C263.05 198.075 263.169 197.841 263.336 197.412C263.499 196.98 263.75 196.36 263.923 195.569C264.011 195.176 264.113 194.745 264.189 194.282C264.251 193.818 264.311 193.324 264.359 192.809C264.397 192.294 264.405 191.754 264.408 191.208C264.409 190.661 264.352 190.107 264.318 189.551C264.247 189.001 264.177 188.449 264.074 187.917C263.955 187.387 263.85 186.865 263.688 186.382C263.544 185.891 263.374 185.436 263.194 185.015C263.025 184.593 262.82 184.219 262.638 183.878C262.251 183.207 261.867 182.718 261.579 182.411C261.288 182.107 261.096 181.98 261.096 181.98Z" fill="white"/>
<path d="M377.057 361.973H67.8516V377.154H377.057V361.973Z" fill="#5D93F4"/>
<path d="M391.136 366.102C391.136 368.373 389.189 370.231 386.806 370.231H58.1042C55.7227 370.231 53.7734 368.373 53.7734 366.102C53.7734 363.831 55.7227 361.973 58.1042 361.973H386.806C389.189 361.973 391.136 363.83 391.136 366.102Z" fill="#2D80E2"/>
<path d="M298.966 358.317C298.966 360.335 297.327 361.972 295.309 361.972H149.598C147.58 361.972 145.943 360.335 145.943 358.317C145.943 356.299 147.58 354.66 149.598 354.66H295.309C297.328 354.66 298.966 356.299 298.966 358.317Z" fill="#184A7C"/>
<path d="M287.417 348.93C287.417 352.741 284.299 355.861 280.488 355.861H164.422C160.61 355.861 157.492 352.742 157.492 348.93V285.345C157.492 281.534 160.61 278.416 164.422 278.416H280.488C284.298 278.416 287.417 281.533 287.417 285.345V348.93Z" fill="#1D5393"/>
<path d="M227.581 316.597C227.581 319.428 225.285 321.724 222.456 321.724C219.624 321.724 217.33 319.428 217.33 316.597C217.33 313.768 219.625 311.473 222.456 311.473C225.286 311.473 227.581 313.768 227.581 316.597Z" fill="#5D93F4"/>
<path opacity="0.6" d="M280.487 278.416H255.489C254.027 325.467 189.991 347.625 161.451 355.176C162.354 355.609 163.359 355.86 164.421 355.86H280.487C284.298 355.86 287.417 352.741 287.417 348.929V285.344C287.417 281.534 284.298 278.416 280.487 278.416Z" fill="#114068"/>
<path d="M126.709 133.861H87.9194C83.2182 133.861 79.4082 137.672 79.4082 142.373V169.842C79.4082 174.542 83.2182 178.353 87.9194 178.353H106.855L117.698 186.294V178.353H126.709C131.41 178.353 135.221 174.542 135.221 169.842V142.373C135.22 137.672 131.41 133.861 126.709 133.861Z" fill="#5D93F4"/>
<path d="M108.712 144.709C108.712 145.427 108.13 146.009 107.411 146.009H87.5514C86.8327 146.009 86.252 145.427 86.252 144.709C86.252 143.99 86.8336 143.408 87.5514 143.408H107.412C108.13 143.408 108.712 143.99 108.712 144.709Z" fill="#A9D0FF"/>
<path d="M129.991 151.802C129.991 152.521 129.409 153.103 128.69 153.103H87.5514C86.8327 153.103 86.252 152.521 86.252 151.802C86.252 151.084 86.8336 150.502 87.5514 150.502H128.691C129.409 150.502 129.991 151.084 129.991 151.802Z" fill="#A9D0FF"/>
<path d="M129.991 158.894C129.991 159.613 129.409 160.193 128.69 160.193H87.5514C86.8327 160.193 86.252 159.612 86.252 158.894C86.252 158.175 86.8336 157.594 87.5514 157.594H128.691C129.409 157.594 129.991 158.175 129.991 158.894Z" fill="#A9D0FF"/>
<path d="M122.898 165.986C122.898 166.705 122.316 167.286 121.598 167.286H87.5514C86.8327 167.286 86.252 166.705 86.252 165.986C86.252 165.267 86.8336 164.685 87.5514 164.685H121.598C122.316 164.685 122.898 165.267 122.898 165.986Z" fill="#A9D0FF"/>
<path opacity="0.1" d="M126.711 133.861H126.014C126.37 156.821 108.429 170.935 94.7012 178.353H106.855L117.698 185.428V178.353H126.71C131.41 178.353 135.222 174.542 135.222 169.842V142.373C135.222 137.672 131.411 133.861 126.711 133.861Z" fill="#114068"/>
<path d="M118.51 243.131H80.3789V266.874H118.51V243.131Z" fill="#FAC849"/>
<path d="M80.3789 243.131H118.511L99.4459 259.732L80.3789 243.131Z" fill="#F4B425"/>
<mask id="mask0_647_42013" style="mask-type:luminance" maskUnits="userSpaceOnUse" x="80" y="243" width="39" height="24">
<path d="M118.51 243.131H80.3789V266.874H118.51V243.131Z" fill="white"/>
</mask>
<g mask="url(#mask0_647_42013)">
<path d="M81.0114 267.644C85.3156 261.917 89.6215 256.189 93.9257 250.463C94.701 249.432 93.4413 247.89 92.6616 248.928C88.3565 254.656 84.0514 260.381 79.7472 266.108C78.9711 267.14 80.2317 268.679 81.0114 267.644Z" fill="#F4B425"/>
<path d="M118.853 266.106C114.546 260.38 110.242 254.654 105.938 248.926C105.159 247.889 103.896 249.43 104.673 250.461C108.979 256.187 113.284 261.915 117.589 267.642C118.367 268.681 119.629 267.138 118.853 266.106Z" fill="#F4B425"/>
</g>
<path opacity="0.1" d="M93.6738 266.876H118.51V243.133H107.248C109.437 254.948 101.731 262.409 93.6738 266.876Z" fill="#114068"/>
<path d="M325.365 203.826H291.129C288.859 203.826 287.02 205.667 287.02 207.938V221.205C287.02 223.476 288.859 225.317 291.129 225.317H308.025L313.262 231.662V225.317H325.365C327.636 225.317 329.475 223.476 329.475 221.205V207.938C329.475 205.667 327.636 203.826 325.365 203.826Z" fill="#FAC849"/>
<path d="M299.745 214.185C299.745 215.483 298.694 216.536 297.395 216.536C296.097 216.536 295.045 215.483 295.045 214.185C295.045 212.887 296.097 211.834 297.395 211.834C298.694 211.834 299.745 212.887 299.745 214.185Z" fill="white"/>
<path d="M310.597 214.185C310.597 215.483 309.545 216.536 308.247 216.536C306.948 216.536 305.896 215.483 305.896 214.185C305.896 212.887 306.948 211.834 308.247 211.834C309.544 211.834 310.597 212.887 310.597 214.185Z" fill="white"/>
<path d="M321.446 214.185C321.446 215.483 320.394 216.536 319.097 216.536C317.798 216.536 316.746 215.483 316.746 214.185C316.746 212.887 317.798 211.834 319.097 211.834C320.394 211.834 321.446 212.887 321.446 214.185Z" fill="white"/>
<path opacity="0.1" d="M325.364 203.826H320.335C321.081 215.917 309.206 222.186 299.121 225.317H308.024L313.261 231.662V225.317H325.364C327.635 225.317 329.474 223.476 329.474 221.205V207.938C329.474 205.667 327.635 203.826 325.364 203.826Z" fill="#114068"/>
<path d="M322.055 133.391C321.225 132.978 319.589 133.342 318.077 133.847C317.625 132.293 317.011 130.809 316.245 129.418C317.664 128.705 319.074 127.809 319.387 126.937C320.136 124.838 316.169 120.871 316.169 120.871C316.169 120.871 312.233 116.935 310.102 117.653C309.224 117.948 308.326 119.361 307.613 120.785C306.223 120.02 304.738 119.404 303.183 118.954C303.683 117.445 304.048 115.813 303.651 114.977C302.696 112.963 297.086 112.963 297.086 112.963C297.086 112.963 291.52 112.963 290.521 114.977C290.109 115.807 290.472 117.443 290.977 118.954C289.422 119.404 287.938 120.02 286.548 120.786C285.835 119.367 284.939 117.956 284.067 117.645C281.967 116.896 278.001 120.863 278.001 120.863C278.001 120.863 274.066 124.799 274.783 126.93C275.078 127.809 276.491 128.707 277.915 129.419C277.151 130.81 276.534 132.294 276.084 133.849C274.575 133.349 272.942 132.985 272.106 133.381C270.092 134.335 270.092 139.946 270.092 139.946C270.092 139.946 270.092 145.512 272.106 146.511C272.937 146.924 274.572 146.559 276.084 146.054C276.534 147.609 277.151 149.094 277.915 150.483C276.497 151.197 275.086 152.093 274.774 152.966C274.026 155.064 277.993 159.032 277.993 159.032C277.993 159.032 281.928 162.967 284.06 162.249C284.938 161.953 285.836 160.54 286.548 159.116C287.938 159.881 289.422 160.497 290.977 160.947C290.478 162.456 290.113 164.088 290.51 164.925C291.463 166.94 297.075 166.94 297.075 166.94C297.075 166.94 302.641 166.94 303.64 164.925C304.052 164.094 303.687 162.46 303.183 160.947C304.738 160.496 306.222 159.881 307.612 159.116C308.326 160.534 309.22 161.944 310.094 162.256C312.193 163.006 316.16 159.038 316.16 159.038C316.16 159.038 320.094 155.102 319.377 152.972C319.083 152.093 317.669 151.196 316.244 150.482C317.01 149.092 317.625 147.608 318.076 146.054C319.585 146.554 321.219 146.916 322.054 146.522C324.067 145.567 324.067 139.957 324.067 139.957C324.067 139.957 324.069 134.39 322.055 133.391ZM297.081 150.074C291.491 150.074 286.958 145.542 286.958 139.95C286.958 134.359 291.491 129.827 297.081 129.827C302.673 129.827 307.204 134.359 307.204 139.95C307.205 145.543 302.674 150.074 297.081 150.074Z" fill="#5D93F4"/>
<g opacity="0.5">
<path d="M297.08 155.469C288.522 155.469 281.561 148.507 281.561 139.949C281.561 131.392 288.522 124.43 297.08 124.43C305.637 124.43 312.6 131.392 312.6 139.949C312.6 148.507 305.637 155.469 297.08 155.469ZM297.08 127.514C290.223 127.514 284.645 133.093 284.645 139.95C284.645 146.807 290.223 152.386 297.08 152.386C303.936 152.386 309.514 146.807 309.514 139.95C309.515 133.093 303.936 127.514 297.08 127.514Z" fill="#1A65D3"/>
</g>
<path opacity="0.1" d="M284.062 162.248C284.939 161.952 285.838 160.539 286.55 159.115C287.94 159.88 289.424 160.496 290.979 160.946C290.479 162.455 290.114 164.087 290.512 164.924C291.465 166.939 297.077 166.939 297.077 166.939C297.077 166.939 302.642 166.939 303.642 164.924C304.054 164.093 303.689 162.459 303.185 160.946C304.74 160.495 306.224 159.88 307.614 159.115C308.327 160.533 309.222 161.943 310.095 162.255C312.195 163.005 316.161 159.037 316.161 159.037C316.161 159.037 320.096 155.101 319.379 152.971C319.085 152.092 317.67 151.195 316.245 150.481C317.012 149.091 317.627 147.608 318.078 146.053C319.587 146.553 321.221 146.915 322.056 146.521C324.069 145.566 324.069 139.957 324.069 139.957C324.069 139.957 324.069 134.39 322.056 133.391C321.226 132.978 319.59 133.342 318.078 133.847C317.626 132.293 317.012 130.809 316.245 129.418C317.665 128.705 319.075 127.809 319.388 126.937C320.137 124.838 316.169 120.871 316.169 120.871C316.169 120.871 315.751 120.456 315.119 119.92C313.387 126.255 310.354 131.746 306.584 136.486C306.979 137.568 307.206 138.731 307.206 139.95C307.206 145.542 302.675 150.074 297.083 150.074C295.555 150.074 294.11 149.725 292.81 149.119C287.415 152.85 281.837 155.712 276.928 157.843C277.518 158.55 277.996 159.031 277.996 159.031C277.996 159.031 281.929 162.965 284.062 162.248Z" fill="#114068"/>
<path d="M144.876 101.723C144.455 101.515 143.628 101.699 142.862 101.954C142.634 101.168 142.322 100.416 141.935 99.7124C142.655 99.3518 143.368 98.8974 143.525 98.4563C143.905 97.3937 141.896 95.3844 141.896 95.3844C141.896 95.3844 139.904 93.3918 138.824 93.7552C138.38 93.9054 137.925 94.6206 137.565 95.3419C136.861 94.9547 136.11 94.6427 135.322 94.4146C135.575 93.6508 135.759 92.8243 135.558 92.4009C135.075 91.3807 132.235 91.3807 132.235 91.3807C132.235 91.3807 129.417 91.3807 128.91 92.4009C128.703 92.8217 128.886 93.65 129.142 94.4146C128.354 94.6436 127.603 94.9548 126.899 95.3428C126.538 94.6241 126.085 93.9099 125.644 93.7516C124.58 93.3724 122.572 95.3808 122.572 95.3808C122.572 95.3808 120.58 97.3734 120.944 98.4519C121.092 98.8965 121.809 99.3518 122.53 99.7124C122.141 100.416 121.83 101.168 121.602 101.954C120.838 101.701 120.011 101.518 119.588 101.717C118.568 102.2 118.568 105.041 118.568 105.041C118.568 105.041 118.568 107.859 119.588 108.366C120.008 108.574 120.836 108.39 121.602 108.134C121.83 108.921 122.141 109.672 122.53 110.377C121.811 110.738 121.097 111.192 120.939 111.633C120.56 112.696 122.568 114.704 122.568 114.704C122.568 114.704 124.561 116.697 125.64 116.333C126.085 116.183 126.541 115.468 126.901 114.747C127.605 115.134 128.356 115.446 129.143 115.674C128.89 116.439 128.706 117.264 128.906 117.688C129.389 118.707 132.23 118.707 132.23 118.707C132.23 118.707 135.048 118.707 135.553 117.688C135.762 117.267 135.577 116.439 135.322 115.674C136.11 115.446 136.861 115.134 137.565 114.747C137.926 115.465 138.379 116.18 138.821 116.337C139.884 116.716 141.892 114.708 141.892 114.708C141.892 114.708 143.885 112.715 143.522 111.636C143.373 111.191 142.656 110.736 141.936 110.376C142.324 109.672 142.636 108.92 142.863 108.133C143.627 108.386 144.454 108.571 144.877 108.37C145.896 107.888 145.896 105.046 145.896 105.046C145.896 105.046 145.895 102.23 144.876 101.723ZM132.231 110.169C129.401 110.169 127.105 107.875 127.105 105.044C127.105 102.213 129.401 99.9184 132.231 99.9184C135.063 99.9184 137.356 102.213 137.356 105.044C137.356 107.875 135.063 110.169 132.231 110.169Z" fill="#FAC849"/>
<g opacity="0.5">
<path d="M132.232 112.901C127.9 112.901 124.375 109.377 124.375 105.044C124.375 100.713 127.9 97.1874 132.232 97.1874C136.564 97.1874 140.089 100.712 140.089 105.044C140.089 109.377 136.564 112.901 132.232 112.901ZM132.232 98.7476C128.76 98.7476 125.936 101.572 125.936 105.043C125.936 108.515 128.76 111.34 132.232 111.34C135.703 111.34 138.529 108.515 138.529 105.043C138.529 101.572 135.703 98.7476 132.232 98.7476Z" fill="#F4B425"/>
</g>
<path opacity="0.1" d="M125.638 116.335C126.083 116.185 126.539 115.47 126.899 114.749C127.602 115.136 128.354 115.448 129.141 115.676C128.888 116.441 128.704 117.266 128.904 117.69C129.386 118.709 132.227 118.709 132.227 118.709C132.227 118.709 135.046 118.709 135.55 117.69C135.76 117.269 135.575 116.441 135.32 115.676C136.107 115.448 136.859 115.136 137.562 114.749C137.924 115.467 138.377 116.182 138.819 116.339C139.882 116.718 141.89 114.71 141.89 114.71C141.89 114.71 143.883 112.717 143.52 111.638C143.37 111.193 142.654 110.738 141.934 110.378C142.322 109.674 142.634 108.922 142.861 108.135C143.625 108.388 144.451 108.573 144.875 108.372C145.894 107.89 145.894 105.048 145.894 105.048C145.894 105.048 145.894 102.23 144.875 101.724C144.453 101.516 143.627 101.7 142.861 101.955C142.633 101.169 142.321 100.417 141.934 99.7135C142.653 99.3528 143.367 98.8985 143.523 98.4574C143.903 97.3948 141.895 95.3855 141.895 95.3855C141.895 95.3855 141.803 95.2953 141.655 95.16C140.377 97.9782 138.712 100.499 136.806 102.746C137.156 103.438 137.356 104.218 137.356 105.047C137.356 107.878 135.063 110.172 132.232 110.172C131.252 110.172 130.338 109.892 129.56 109.415C127.053 111.251 124.461 112.786 121.986 114.056C122.305 114.443 122.568 114.707 122.568 114.707C122.568 114.707 124.559 116.699 125.638 116.335Z" fill="#114068"/>
<path d="M125.074 198.569H155.345C157.353 198.569 158.98 200.198 158.98 202.204V213.935C158.98 215.944 157.353 217.57 155.345 217.57H140.407L135.775 223.179V217.57H125.074C123.067 217.57 121.439 215.944 121.439 213.935V202.204C121.439 200.198 123.066 198.569 125.074 198.569Z" fill="#FC8B3F"/>
<path d="M139.656 204.202C138.544 203.557 136.904 204.23 135.579 205.713C134.257 204.231 132.615 203.557 131.503 204.202C130.099 205.018 130.08 207.605 131.46 209.981C132.568 211.891 134.237 213.059 135.579 213.033C136.924 213.059 138.591 211.891 139.7 209.981C141.08 207.605 141.061 205.018 139.656 204.202Z" fill="white"/>
<path d="M145.37 212.154V205.311L146.295 206.203H143.956V204.539H147.524V212.154H145.37Z" fill="white"/>
<path opacity="0.1" d="M158.981 202.206C158.981 200.199 157.353 198.57 155.346 198.57H149.128C149.593 209.208 139.671 214.757 130.947 217.573H135.776V223.182L140.407 217.573H155.346C157.353 217.573 158.981 215.946 158.981 213.938V202.206Z" fill="#114068"/>
<path d="M157.75 110.158H188.021C190.029 110.158 191.657 111.786 191.657 113.793V125.525C191.657 127.532 190.029 129.16 188.021 129.16H173.083L168.452 134.77V129.16H157.751C155.743 129.16 154.115 127.531 154.115 125.525V113.793C154.113 111.786 155.742 110.158 157.75 110.158Z" fill="#FC8B3F"/>
<path d="M178.044 123.394V116.551L178.969 117.443H176.63V115.779H180.198V123.394H178.044Z" fill="white"/>
<path d="M171.553 116.543H165.387C164.639 116.543 164.033 117.149 164.033 117.896V122.263C164.033 123.011 164.64 123.617 165.387 123.617H168.397L170.12 125.705V123.617H171.553C172.3 123.617 172.906 123.011 172.906 122.263V117.896C172.907 117.149 172.301 116.543 171.553 116.543Z" fill="white"/>
<path opacity="0.1" d="M191.656 113.793C191.656 111.785 190.028 110.158 188.021 110.158H181.804C182.267 120.795 172.346 126.345 163.623 129.16H168.451V134.769L173.083 129.16H188.021C190.028 129.16 191.656 127.531 191.656 125.525V113.793Z" fill="#114068"/>
<path d="M381.163 173.842C381.471 161.537 371.744 151.311 359.438 151.004C347.132 150.696 336.906 160.422 336.598 172.728C336.29 185.034 346.017 195.259 358.324 195.567C370.63 195.875 380.855 186.148 381.163 173.842Z" fill="#FC8B3F"/>
<path d="M369.973 163.761C365.827 167.499 361.68 171.239 357.531 174.978C354.89 173.654 352.247 172.332 349.609 171.008C347.995 170.2 346.574 172.62 348.192 173.43C351.144 174.91 354.099 176.39 357.051 177.868C357.643 178.164 358.255 178.095 358.75 177.648C363.152 173.682 367.556 169.713 371.956 165.744C373.303 164.532 371.314 162.554 369.973 163.761Z" fill="white"/>
<path d="M358.882 155.906C359.521 155.906 360.039 155.388 360.039 154.749C360.039 154.11 359.521 153.592 358.882 153.592C358.243 153.592 357.725 154.11 357.725 154.749C357.725 155.388 358.243 155.906 358.882 155.906Z" fill="#F46C0F"/>
<path d="M360.037 192.08C360.037 192.719 359.518 193.237 358.88 193.237C358.24 193.237 357.723 192.719 357.723 192.08C357.723 191.441 358.24 190.924 358.88 190.924C359.518 190.925 360.037 191.442 360.037 192.08Z" fill="#F46C0F"/>
<path d="M377.547 174.572C376.908 174.572 376.391 174.053 376.391 173.414C376.391 172.776 376.908 172.258 377.547 172.258C378.188 172.258 378.704 172.776 378.704 173.414C378.703 174.053 378.188 174.572 377.547 174.572Z" fill="#F46C0F"/>
<path d="M340.215 174.572C339.575 174.572 339.059 174.053 339.059 173.414C339.059 172.776 339.575 172.258 340.215 172.258C340.854 172.258 341.37 172.776 341.37 173.414C341.37 174.053 340.854 174.572 340.215 174.572Z" fill="#F46C0F"/>
<path d="M369.303 157.885C368.981 158.437 368.271 158.622 367.72 158.298C367.167 157.977 366.983 157.268 367.305 156.717C367.629 156.165 368.336 155.981 368.888 156.302C369.439 156.625 369.625 157.335 369.303 157.885Z" fill="#F46C0F"/>
<path d="M350.455 190.111C350.131 190.662 349.423 190.847 348.871 190.524C348.321 190.201 348.135 189.493 348.457 188.942C348.779 188.39 349.488 188.205 350.04 188.528C350.593 188.849 350.778 189.558 350.455 190.111Z" fill="#F46C0F"/>
<path d="M374.407 183.837C373.857 183.514 373.672 182.806 373.994 182.254C374.317 181.703 375.025 181.518 375.576 181.84C376.13 182.162 376.314 182.871 375.991 183.422C375.67 183.974 374.962 184.16 374.407 183.837Z" fill="#F46C0F"/>
<path d="M342.186 164.99C341.633 164.666 341.447 163.958 341.769 163.407C342.092 162.856 342.801 162.67 343.352 162.992C343.903 163.314 344.09 164.023 343.767 164.574C343.445 165.126 342.735 165.312 342.186 164.99Z" fill="#F46C0F"/>
<path d="M348.459 157.885C348.782 158.437 349.491 158.622 350.043 158.298C350.595 157.977 350.78 157.268 350.458 156.717C350.134 156.165 349.426 155.981 348.874 156.302C348.322 156.625 348.137 157.335 348.459 157.885Z" fill="#F46C0F"/>
<path d="M367.308 190.111C367.63 190.662 368.338 190.847 368.89 190.524C369.441 190.201 369.626 189.493 369.305 188.942C368.983 188.39 368.273 188.205 367.721 188.528C367.169 188.849 366.984 189.558 367.308 190.111Z" fill="#F46C0F"/>
<path d="M343.356 183.837C343.907 183.514 344.091 182.806 343.769 182.254C343.447 181.703 342.739 181.518 342.188 181.84C341.635 182.162 341.449 182.871 341.772 183.422C342.094 183.974 342.802 184.16 343.356 183.837Z" fill="#F46C0F"/>
<path d="M375.579 164.99C376.131 164.666 376.315 163.958 375.994 163.407C375.671 162.856 374.962 162.67 374.412 162.992C373.859 163.314 373.674 164.023 373.995 164.574C374.319 165.126 375.027 165.312 375.579 164.99Z" fill="#F46C0F"/>
<path d="M212.367 99.2693V97.9368L215.183 95.304C215.383 95.1177 215.53 94.9529 215.623 94.8097C215.724 94.6664 215.788 94.5374 215.817 94.4228C215.853 94.301 215.871 94.19 215.871 94.0897C215.871 93.8461 215.788 93.6563 215.623 93.5201C215.466 93.384 215.226 93.316 214.903 93.316C214.631 93.316 214.377 93.3769 214.14 93.4986C213.904 93.6204 213.711 93.8031 213.56 94.0467L211.98 93.1655C212.26 92.6927 212.665 92.313 213.195 92.0264C213.725 91.7399 214.359 91.5966 215.097 91.5966C215.677 91.5966 216.186 91.6897 216.623 91.876C217.06 92.0622 217.4 92.3273 217.644 92.6712C217.894 93.0151 218.02 93.4198 218.02 93.8855C218.02 94.1291 217.988 94.3727 217.923 94.6162C217.859 94.8526 217.733 95.107 217.547 95.3792C217.368 95.6443 217.099 95.9416 216.741 96.2711L214.506 98.3344L214.151 97.5822H218.224V99.2693H212.367ZM218.716 97.8293V96.4431L222.09 91.747H224.293L221.015 96.4431L220.005 96.1422H225.883V97.8293H218.716ZM222.692 99.2693V97.8293L222.756 96.1422V94.8634H224.766V99.2693H222.692ZM225.794 100.344L229.34 90.2211H231.156L227.61 100.344H225.794ZM232.187 99.2693L235.121 92.5315L235.69 93.4342H231.875L232.746 92.4563V94.5947H230.93V91.747H237.163V93.0795L234.508 99.2693H232.187Z" fill="#B6CDEF"/>
<path d="M243.92 96.1412C243.731 104.835 238.35 112.226 230.101 115.008C221.85 117.795 212.768 114.258 207.828 107.336C202.767 100.249 203.481 90.4738 208.72 83.744C214.432 76.4076 224.692 74.5618 232.922 78.4179C230.747 79.1931 228.574 79.9693 226.401 80.7445C225.397 81.1034 225.83 82.7141 226.845 82.3516C229.51 81.4005 232.174 80.4475 234.84 79.4972C235.275 79.3416 235.536 78.9385 235.422 78.4735C234.735 75.7084 234.047 72.9432 233.362 70.1781C233.103 69.1359 231.497 69.5787 231.756 70.6219C232.264 72.6683 232.771 74.7148 233.281 76.7612C224.254 72.7717 213.978 74.9729 207.544 82.5682C201.421 89.7949 201.314 100.407 206.388 108.179C211.563 116.103 221.652 119.199 230.545 116.615C239.561 113.996 245.387 105.296 245.587 96.1429C245.61 95.0653 243.944 95.0689 243.92 96.1412Z" fill="#B6CDEF"/>
<path d="M343.019 303.297C338.654 299.598 332.187 309.635 330.889 314.793C330.194 310.689 329.26 306.551 328.058 302.49C330.499 302.615 339.186 292.466 334.571 289.953C330.85 287.925 327.651 295.862 327.3 300.05C326.195 296.662 324.896 293.346 323.382 290.169C326.67 289.264 334.315 273.003 327.39 271.363C322.133 270.119 320.601 280.174 321.277 286.09C319.7 283.279 317.933 280.617 315.964 278.157C318.61 276.103 322.198 262.054 316.257 261.723C311.633 261.465 311.819 270.116 313.263 275.066C312.116 273.855 310.914 272.705 309.646 271.63C310.736 268.2 295.987 252.555 291.301 259.415C286.841 265.949 304.706 273.555 308.841 272.312C310.409 273.631 311.876 275.069 313.256 276.6C308.794 274.697 299.397 273.624 299.371 278.383C299.339 284.181 313.314 281.48 315.316 279.029C317.434 281.706 319.303 284.631 320.954 287.721C316.26 284.639 305.749 281.494 304.751 286.917C303.556 293.394 319.384 293.293 322.621 291.036C323.876 293.716 324.97 296.502 325.932 299.339C322.821 296.434 317.124 293.311 315.546 296.595C313.522 300.802 323.942 303.728 327.101 303.042C328.07 306.354 328.855 309.715 329.48 313.059C326.276 308.504 319.784 302.958 316.883 306.751C313.071 311.735 326.441 318.479 330.301 318.062C330.91 322.376 331.262 326.607 331.384 330.604C331.405 331.3 332.489 331.304 332.467 330.604C332.34 326.457 331.97 322.08 331.33 317.624C334.396 318.463 348.268 307.749 343.019 303.297Z" fill="#B6CDEF"/>
<path d="M369.993 266.88C371.42 264.574 372.931 262.294 374.525 260.079C378.593 260.674 394.799 249.078 388.931 243.628C382.936 238.064 372.26 255.934 373.671 259.448C372.573 260.986 371.522 262.558 370.5 264.142C371.326 259.234 370.783 252.256 366.702 252.688C360.992 253.292 365.084 266.621 367.745 268.551C367.114 269.599 366.496 270.646 365.89 271.691C364.606 273.903 363.397 276.155 362.237 278.429C362.926 272.972 361.551 263.435 356.622 264.591C350.096 266.121 357.484 281.683 360.445 282.075C358.534 286.099 356.811 290.205 355.272 294.381C355.36 287.646 352.135 275.722 346.18 277.97C338.382 280.911 350.135 299.002 353.737 298.746C352.355 302.868 351.149 307.047 350.111 311.271C349.19 306.746 346.04 300.279 342.56 302.234C337.972 304.814 346.191 314.518 349.182 315.264C347.411 323.332 346.231 331.535 345.645 339.771C345.596 340.461 346.664 340.644 346.714 339.948C347.302 331.666 348.498 323.462 350.286 315.404C353.1 316.61 366.034 313.071 363.589 308.158C361.566 304.095 353.955 308.987 350.962 312.485C352.047 307.995 353.324 303.552 354.792 299.177C359.15 301.363 378.185 299.009 375.74 291.382C373.693 285.008 361.573 290.367 356.33 294.815C357.857 290.68 359.56 286.611 361.444 282.609C364.97 284.744 380.098 284.774 378.951 278.474C377.989 273.199 367.914 276.097 363.163 279.081C364.201 277.02 365.271 274.975 366.408 272.957C367.137 271.663 367.899 270.363 368.672 269.063C370.725 271.507 385.457 273.643 385.126 267.628C384.84 262.439 374.083 264.51 369.993 266.88Z" fill="#B6CDEF"/>
<path d="M360.179 358.263C359.905 360.301 357.999 361.97 355.941 361.97H323.944C321.886 361.97 320.017 360.297 319.788 358.253L315.943 323.829C315.714 321.784 317.211 320.111 319.269 320.111H361.553C363.61 320.111 365.069 321.779 364.797 323.82L360.179 358.263Z" fill="#FC8B3F"/>
<path opacity="0.1" d="M361.552 320.111H353.87C355.026 332.087 352.559 349.962 331.928 361.971H355.942C358 361.971 359.905 360.302 360.18 358.264L364.798 323.821C365.069 321.779 363.609 320.111 361.552 320.111Z" fill="#114068"/>
<path d="M369.718 323.387C369.718 326.078 367.537 328.259 364.847 328.259H315.901C313.211 328.259 311.029 326.078 311.029 323.387C311.029 320.696 313.211 318.516 315.901 318.516H364.847C367.538 318.517 369.718 320.696 369.718 323.387Z" fill="#F46C0F"/>
<path d="M117.256 360.381C116.633 360.381 116.008 360.323 115.395 360.207C108.669 358.936 104.509 350.957 106.12 342.417C107.582 334.677 113.16 329.061 119.385 329.061C120.008 329.061 120.633 329.118 121.245 329.234C127.972 330.505 132.132 338.486 130.52 347.024C129.058 354.763 123.479 360.381 117.256 360.381ZM119.385 333.39C115.308 333.39 111.434 337.618 110.376 343.222C109.207 349.414 111.819 355.124 116.2 355.951C116.547 356.017 116.901 356.05 117.256 356.05C121.333 356.05 125.207 351.825 126.265 346.221C127.433 340.027 124.821 334.317 120.442 333.49C120.094 333.424 119.738 333.39 119.385 333.39Z" fill="#FC8B3F"/>
<path d="M116.897 325.404H84.3976C84.3976 325.404 80.0669 350.897 92.9141 361.969H99.8632H101.431H108.381C121.229 350.897 116.897 325.404 116.897 325.404Z" fill="#FC8B3F"/>
<path opacity="0.1" d="M101.431 361.971H108.38C121.228 350.899 116.896 325.406 116.896 325.406H108.252C105.72 334.843 100.072 349.402 88.3652 356.383C89.5692 358.464 91.0561 360.37 92.9134 361.971H99.8625H101.431Z" fill="#114068"/>
<path d="M95.5981 322.735C95.5981 322.735 91.156 319.771 92.2327 315.735C93.3103 311.697 98.5286 304.379 93.8319 299.445C93.8319 299.445 101.387 303.483 98.9644 309.273C96.5405 315.062 93.5791 317.486 95.5981 322.735Z" fill="#CEDDF4"/>
<path d="M107.125 317.138C107.125 317.138 102.683 314.173 103.76 310.137C104.838 306.099 110.056 298.78 105.359 293.848C105.359 293.848 112.915 297.887 110.491 303.676C108.068 309.463 105.106 311.888 107.125 317.138Z" fill="#CEDDF4"/>
<path d="M116.898 325.403C116.898 327.178 109.571 328.616 100.535 328.616C91.4985 328.616 84.1719 327.178 84.1719 325.403C84.1719 323.63 91.4985 322.191 100.535 322.191C109.571 322.192 116.898 323.631 116.898 325.403Z" fill="#F46C0F"/>
<path d="M86.3789 327.01C89.2086 327.968 94.4817 328.616 100.534 328.616C106.588 328.616 111.86 327.968 114.69 327.01C111.86 326.051 106.588 325.404 100.534 325.404C94.4817 325.404 89.2095 326.051 86.3789 327.01Z" fill="#AF622E"/>
<path d="M272.284 86.318L269.601 77.2402L266.919 86.318L258.623 89.1707L266.919 92.0243L269.601 101.1L272.284 92.0243L280.58 89.1707L272.284 86.318Z" fill="#E3EDFC"/>
<path d="M285.506 186.436L283.687 180.281L281.867 186.436L276.242 188.371L281.867 190.307L283.687 196.46L285.506 190.307L291.131 188.371L285.506 186.436Z" fill="white"/>
<path d="M313.549 177.692L312.601 174.48L311.652 177.692L308.717 178.701L311.652 179.71L312.601 182.923L313.549 179.71L316.484 178.701L313.549 177.692Z" fill="white"/>
<path d="M371.581 221.39L369.72 215.096L367.861 221.39L362.107 223.368L367.861 225.346L369.72 231.641L371.581 225.346L377.333 223.368L371.581 221.39Z" fill="#E3EDFC"/>
<path d="M332.541 247.358L330.437 240.236L328.331 247.358L321.824 249.594L328.331 251.834L330.437 258.953L332.541 251.834L339.047 249.594L332.541 247.358Z" fill="white"/>
<path d="M284.636 241.553L283.687 238.342L282.739 241.553L279.803 242.564L282.739 243.573L283.687 246.785L284.636 243.573L287.571 242.564L284.636 241.553Z" fill="white"/>
<path d="M350.523 132.73L349.457 129.127L348.392 132.73L345.1 133.863L348.392 134.995L349.457 138.598L350.523 134.995L353.815 133.863L350.523 132.73Z" fill="#E3EDFC"/>
<path d="M146.026 68.4498L144.963 64.8457L143.896 68.4498L140.604 69.5822L143.896 70.7137L144.963 74.3178L146.026 70.7137L149.32 69.5822L146.026 68.4498Z" fill="#E3EDFC"/>
<path d="M317.889 74.0714L316.03 67.7773L314.17 74.0714L308.416 76.0498L314.17 78.0291L316.03 84.3223L317.889 78.0291L323.642 76.0498L317.889 74.0714Z" fill="#E3EDFC"/>
<path d="M181.391 86.9375L179.532 80.6426L177.671 86.9375L171.918 88.9159L177.671 90.8943L179.532 97.1884L181.391 90.8943L187.144 88.9159L181.391 86.9375Z" fill="#E3EDFC"/>
<path d="M95.7643 96.0563L94.6999 92.4531L93.6347 96.0563L90.3418 97.1887L93.6347 98.3202L94.6999 101.923L95.7643 98.3202L99.0572 97.1887L95.7643 96.0563Z" fill="#E3EDFC"/>
<path d="M61.2434 167.865L58.5622 158.787L55.8784 167.865L47.582 170.718L55.8784 173.571L58.5622 182.647L61.2434 173.571L69.5388 170.718L61.2434 167.865Z" fill="#E3EDFC"/>
<path d="M164.38 154.482L161.453 144.576L158.524 154.482L149.471 157.595L158.524 160.711L161.453 170.614L164.38 160.711L173.432 157.595L164.38 154.482Z" fill="white"/>
<path d="M85.9909 212.77L84.1725 206.615L82.3515 212.77L76.7266 214.706L82.3515 216.641L84.1725 222.794L85.9909 216.641L91.6167 214.706L85.9909 212.77Z" fill="white"/>
<path d="M155.062 241.553L154.113 238.342L153.164 241.553L150.229 242.564L153.164 243.573L154.113 246.785L155.062 243.573L157.997 242.564L155.062 241.553Z" fill="white"/>
<path d="M131.811 284.571L129.993 278.416L128.173 284.571L122.547 286.505L128.173 288.441L129.993 294.595L131.811 288.441L137.436 286.505L131.811 284.571Z" fill="white"/>
<path d="M46.9181 273.003L45.0581 266.707L43.1982 273.003L37.4434 274.982L43.1982 276.961L45.0581 283.254L46.9181 276.961L52.6694 274.982L46.9181 273.003Z" fill="#E3EDFC"/>
<path d="M53.774 300.759L52.7097 297.154L51.6436 300.759L48.3516 301.891L51.6436 303.022L52.7097 306.625L53.774 303.022L57.066 301.891L53.774 300.759Z" fill="#E3EDFC"/>
<path d="M398.806 292.613L396.946 286.32L395.086 292.613L389.332 294.594L395.086 296.57L396.946 302.866L398.806 296.57L404.558 294.594L398.806 292.613Z" fill="#E3EDFC"/>
</g>
<defs>
<clipPath id="clip0_647_42013">
<rect width="442" height="442" fill="white"/>
</clipPath>
</defs>
</svg>
